<?xml version="1.0" encoding="utf-8"?>
<!-- Generator: Adobe Illustrator 22.1.0, SVG Export Plug-In . SVG Version: 6.00 Build 0)  -->
<svg version="1.1" id="Layer_1" xmlns="http://www.w3.org/2000/svg" xmlns:xlink="http://www.w3.org/1999/xlink" x="0px" y="0px"
	 viewBox="0 0 654 513" style="enable-background:new 0 0 654 513;" xml:space="preserve">
<style type="text/css">
	.st0{fill:#FFFFFF;}
</style>
<g>
	<path class="st0" d="M220.4,180.2c0,0.4-0.4,1.2-0.7,1.1c-3.8-0.1-7.8,0.9-11.2-1.8c-0.3-0.2-0.7-0.5-1-0.5
		c-4.7,0.8-8.3-2-12.4-3.3c-0.4-0.1-0.7-0.3-1.1-0.3c-0.6,0-1.2,0.1-1.7,0.1c0.2,0.6,0.4,1.2,0.7,1.7c0.7,0.9,2.1,1.8,0.6,2.8
		c-1,0.8-1.1,2.9-3.9,1.6c-4.2-1.9-8.3-4-12.6-6.2c-0.1,0,0.1,0,0.3,0c-0.1-0.3-0.2-0.7-0.4-0.9c-0.1-0.1-0.5,0.1-0.7,0.2
		c0.2,0.2,0.4,0.5,0.8,0.7c0,1.8,0.9,2.9,2.5,3.6c0.4,0.2,0.9,0.5,1.3,0.7c-0.5,0.2-1,0.4-1.6,0.5c-2.2,0.5-4.4-0.1-6-1.3
		c-1.5-1.1-2.8-1-4.4-1.1c-0.5-1.9-1.7-2.6-4-2.2c0.1-0.4,0.4-0.6,0.4-0.8c0-0.5-0.2-1-0.3-1.5c-0.3,0.1-0.8,0.1-0.8,0.2
		c0,0.6,0.1,1.3,0.6,2.1c0.9,1.7,2.2,2.4,4,2.2c0.1,0.3,0.3,0.7,0.4,1c0.2,0.7,0.5,1.4,0.7,2c-0.7,0.1-1.5,0.4-2,0.2
		c-1.2-0.5-2.2-1.5-3.4-2c-1.6-0.7-2.7,0.2-2.9,2.2c-0.3,2.8-1,3.2-3.5,2c-0.2-0.1-0.3-0.4-0.4-0.4c-2.2,0.8-2.3-3.4-4.6-1.9
		c-1.9,1.2-0.5,3.4-1.1,4.9c-0.6,1.7-1.8,3.2-2.7,4.9c-0.3,0.6-0.9,1.8-0.8,2c2.3,1.9,0.4,2.9-0.6,4.3c-3.8,4.7-5.7,10.4-7.8,15.9
		c-0.3,0.9-0.5,2.1-1.1,2.5c-3.4,2-3.9,6.7-7.9,8.1c-0.3,0.1-0.4,1-0.5,1.5c-1.6,5.1-1.6,5.1-4.6,8.3c-1.1,1.1-1.4,2.2-1.5,3.6
		c0,0.9-0.5,1.9-1.1,2.5c-0.9,0.9-1.6,1.8-1.2,3.1c0.8,2.9-1,5-3,5.8c-2.6,1-2.1,1.7-0.7,3.1c0.9,0.9,1.7,1.5,0.2,2.6
		c-0.6,0.4-1.1,1.2-1.2,1.9c-0.2,2.9,0.3,5.7-1.1,8.6c-0.5,1,1.1,2.8,1,4.2c-0.3,4,1.3,8.2-1,12.2c-0.5,0.8-0.2,2.4,0.2,3.4
		c1.4,3,1.3,5.9,0.1,8.9c-0.2,0.5-0.5,1.1-0.4,1.6c0.4,2.8-0.8,5.3-1.1,7.9c-0.1,1.2,1.4,2.7,1,3.6c-2,5.1-1.2,10.8-4.2,15.7
		c-1.7,2.8-2.6,6.1-3.1,9.6c-0.5,3.8-2.4,7.4-4.6,10.6c-1.5,2.1-2.4,4.6-3.9,6.8c-1.5,2.2-3.3,4.3-5.1,6.3c-1.9,2.1-3.8,4.1-5.9,5.9
		c-3.7,3.3-7.8,5.9-13,6.2c-1.5,0.1-2.9,0.8-4.3,1.1c-1.5,0.3-2.9-0.2-4.4,1c-1,0.8-3.2,0.6-4.6,0.1c-2.4-0.8-4.9-0.8-7.3-1.3
		c-2.2-0.5-4.8-0.3-6.6-1.2c-3.2-1.7-6.8-1.9-10-3.5c-4.5-2.2-9.5-4.1-13-7.4c-3.4-3.1-7.6-6-9.4-10.8c-1-2.7-4.3-3.8-5.2-6.8
		c-0.8-2.4-2.2-4.7-3.3-7c-0.3-0.5-0.8-0.9-0.9-1.4c-0.6-2.6,0.8-5.3-1-8c-1.3-1.9,1-5.1-1.4-7.2c2.5-1.3,0.4-4,1.9-5.9
		c0.7-0.8,2-3,0.6-4.8c-0.2-0.3-0.1-1.4,0.2-1.5c3.4-2.2,2.3-6.9,5.5-9.2c-0.9-3.7,2.4-5.4,3.8-8c1.3-2.5,2.4-5,3.6-7.5
		c0.2-0.3,0.4-0.7,0.7-0.9c5.4-4.3,7.8-10.7,11.5-16.2c1.4-2,3.4-3.9,6-4.1c1.8-0.1,2.9-0.7,3.4-2.5c0.3-0.9,1-1.7,1.7-2.3
		c2.2-1.7,5.4-2.6,4.3-6.6c-0.1-0.5,1.6-1.3,1.9-2.1c0.6-2,2.9-3.6,0.8-6.2c-1.2-1.5-0.1-4.2,1.6-4.2c5.2,0.1,4.9-4.4,5-6.8
		c0.3-6.2,2.3-12.4,1.4-18.7c-0.1-0.8-0.2-1.7,0-2.4c0.6-1.9,2.4-4.2,1.8-5.4c-1.1-2.2-0.3-4.3-0.7-6.3c-0.3-1.7,0.2-3.3,1.1-4.9
		c1.3-2.5,2.5-4.9,2.6-8c0.1-2.6,2-5.1,2.9-7.7c0.8-2.5,3.1-4.3,3-7.2c0-0.5,0.5-1.1,0.9-1.4c3.4-1.8,3.8-5.7,5.8-8.5
		c1.9-2.6,2.7-6,4.1-9.1c0.4-0.8,1.3-1.5,1.5-2.4c0.7-3.3,4.6-4.4,4.9-8.2c0.3-3,3.1-5.5,4.7-8.2c2.4-4,2-8.8,4.5-12.6
		c0.3-0.4-0.2-1.5,0.1-1.7c3.4-2.8,2.6-8,5.9-10.8c1.8-1.5,0.9-4.1,2.5-5.6c-2.3-2.6,0-3.9,1.4-5.6c1.9-2.3,3.2-5.1,5-7.6
		c3.1-4.4,7.1-7.8,10.8-11.6c1.7-1.7,4.2-2.4,6.1-3.9c1.9-1.5,4.7-1.5,6-2.7c1.5-1.5,2.8-3.6,4.5-5.2c0.3-0.3,1.1-0.3,1.6-0.5
		c1.4-0.5,2.9-0.9,4.1-1.7c1-0.7,1.4-2.7,2.3-2.9c2.1-0.4,4.4-0.2,6.6-0.1c0.3,0,0.8,1.1,0.8,1.8c0,0.5-0.4,1.1-0.6,1.7
		c0.9-0.1,2,0,2.8-0.4c0.7-0.3,1-1.9,1.5-1.9c2.3-0.1,4.7,0,7,0.4c3.5,0.6,6.3,3.5,10.1,3.2c0.7,0,1.5,1.1,2.1,1.9
		c0.8,1,1.5,2.2,2.3,3.3c0.7,1,1.2,0.5,1.7-0.2c1-1.3,1.8-3.1,3.2-3.7c1.6-0.8,2.3-1.7,2.8-3.3c0-0.2,1.8-0.2,1.9,0
		c1,3.1,2.4,4.1,5.5,2.2c1.7-1.1,3.6,2.6,5.1,0.5c0.9-1.2,0.3-3.4,0.6-5.1c0.2-1.1,2.2-1.8,3.3-1.2c2.3,1.3,4.9,2,6.7,4.2
		c0.9,1.1,9.4,4.6,11.1,4.9c4.6,1,9,2.2,13.5,3.5c6.2,1.9,10.6,5.9,14.4,10.8c0.8,1.1,1.7,2.1,2.5,3.2c0.5,0.8,1.1,1.7,1.1,2.5
		c-0.2,2.9,1.9,4.9,2.9,7.2c1.1,2.7,4.4,2.6,6.7,3.9c0.6,0.3,1.8,0,2.2,0.4c2.9,3.2,7,4.5,10.3,6.9c1.6,1.2,2.6,3.3,3.9,4.9
		c1.3,1.5,3.6,2.8,3.8,4.4c0.5,3.3,5.4,2.1,5,5.7c1.9,1.7,1.6,4.5,3.7,6.4c1.8,1.6,2.4,4.5,3.5,6.9c0.2,0.3,0.2,0.9,0,1.2
		c-2.3,2.8-0.9,6.1-1.1,9.1c-0.4,4.7-1.2,9.4-2.5,14c-0.8,2.8-2.3,5.4-3.5,8.1c-0.8,1.7-1.3,3.6-2.6,4.9c-2.5,2.4-5.1,4.8-8.1,6.4
		c-3.7,1.9-7.5,4-11.6,5.3c-4.5,1.4-8.9,0.6-13.3,0.6c-1.8-2.3-5.2,0.5-7-2.1c-0.1-0.1-1.6,0.3-1.9,0.8c-1.8,2.8-4.5,2.6-7.3,2.8
		c-3.1,0.2-6.1-1.1-9.2-0.2C224.1,181.7,222.3,180.6,220.4,180.2c-0.1,0,0.1,0,0.3,0c-0.1-0.3-0.2-0.7-0.4-0.9
		c-0.1-0.1-0.5,0.1-0.7,0.2C219.7,179.7,219.9,180,220.4,180.2z M157.9,60.7c1.2-0.6,2-1,2.7-1.4c-0.4-0.5-0.8-1.3-1.2-1.4
		c-0.8-0.1-2.1-0.6-2.3,0.8C157,59.3,157.6,59.9,157.9,60.7z"/>
	<path class="st0" d="M341.9,91.9c-0.3,5.7,0.2,9.8-1.2,13.8c-1.9,5.2-7.6,10.3-14,11c-0.9,0.1-2,0.1-2.7,0.6
		c-1.3,0.9-2.4,0.9-3.7,0c-0.7-0.5-1.8-0.5-2.7-0.6c-5.4-0.5-9.6-4.3-10.4-9.6c-0.4-2.5-2.1-7-3.4-8.8c-2.6-3.7-4.7-7.6-5-12.3
		c-0.1-1.7-2.5-3.3-1.1-4.8c1.5-1.6,0.2-3.7,1.3-4.9c1.5-1.7,1-3.4,0.9-5c-0.1-1.9,0.8-2.9,2-4c3-3,7.5-3.4,10.7-5.9
		c1.7,2.2,3.2-0.9,5-0.1c1.5,0.6,3.3,0.9,4.9,1.1c5.3,0.8,9.2,4,13.4,6.8c3.3,2.1,4.1,6,4.7,9.3C341.4,83.4,342.9,88.4,341.9,91.9z
		 M302.5,72.9c-0.2-0.1-0.6-0.3-1-0.4c-0.1,0.3-0.4,0.7-0.4,1c0.1,0.4,0.5,0.7,0.7,1C302,74.1,302.1,73.8,302.5,72.9z M334.1,86.9
		c0.9-0.4,1.2-0.5,1.6-0.7c-0.3-0.3-0.7-0.6-1-0.7c-0.3-0.1-0.6,0.2-1,0.4C333.8,86.3,334,86.7,334.1,86.9z"/>
	<path class="st0" d="M226,24.9c11.3,2,8.4,5.1,5.5,8.3c-1.4,1.6-3.3,2.9-5.3,2.9c-1.7,0.1-3.7-0.6-5.3-1.5
		c-3.7-2.1-6.7-5.2-10.1-7.9c-2-1.6-2.3-5.1-4-7.1c-1.4-1.7-1.9-3.2-1.8-5.3c0.2-5.4,2.8-8,8.1-8.2c2.8-0.1,5.6,0.5,8.5-1
		c2.4-1.2,5.8-0.5,7,2.6c0.9,2.2,2.4,3.6,3.9,4.9C235.6,15.2,237.2,18.1,226,24.9c-1,1.8-9.8,4.3-8.3,3.4c0.1-0.1,0-1-0.8-0.6
		c-1.7,0.8-2,0.7-2.3,0.9c0.2,0.2,0.4,0.6,0.5,0.5c0.6-0.2,1.2-0.4,1.7-0.7"/>
	<path class="st0" d="M242.3,25.4c0-3.4,0.2-6,1.9-8.7c3.4-5.4,6.6-6.5,12.8-5c3.4,0.9,6,3,8.9,4.5c2.2,1.1,2.9,3.8,4.1,6
		c1.2,2.3,1.7,4.1-0.1,6.3c-0.4,0.5,0.1,1.6-0.1,2.3c-0.7,4.1-4.9,7.7-9.1,7.8c-7.1,0.1-12.8-3-17.6-8.1
		C241.4,28.8,242.9,26.8,242.3,25.4z"/>
	<path class="st0" d="M300.2,42.7c0,7.2-4.2,8.3-9.5,10.3c-0.9,0.3-2,0.1-2.8,0.5c-2.1,1.3-3.9,0.9-5.8-0.5
		c-1.8-1.3-3.9-2.2-5.6-3.6c-1.8-1.4-3.4-3-3.5-5.7c-0.1-2.1-1.5-4.2-1.9-6.3c-0.7-3.7,1.7-7,6-9.6c4.2-2.5,8.1-1,11.9,0.7
		c4.1,1.9,7.5,4.8,9.6,8.9C299.4,39,299.7,40.9,300.2,42.7z M294,33.6c-0.7,0.5-1.1,0.7-1.4,0.9c0.7,0.9,1.3,1.9,2,2.8
		c0.1-0.5,0.4-1.1,0.3-1.6C294.8,34.9,294.4,34.3,294,33.6z M297.2,39.6c-1.5-0.6-2-1-2.2-0.9c-0.5,0.4-0.8,0.9-1.3,1.4
		c0.3,0.2,0.7,0.6,1,0.6C295.5,40.5,296.1,40.1,297.2,39.6z"/>
	<path class="st0" d="M177.6,24.5c3.8-1.7,5.7,1.7,8.4,3c0.7,0.3,0.8,2,1.1,3c0.6,1.7,1.2,9.1,1.2,10.5c0.1,2.1-1.3,2.7-2.8,3.7
		c-3.1,2.2-7.1,1.2-10,3.5c-3.7-2.5-8.3-0.1-12.1-2.5c-4.6-2.8-4.8-6.4-2.4-10.3c1.2-2,2.6-3.8,4.2-5.4c1.6-1.6,3.4-3.1,5.4-4.2
		C172.8,24.6,175.1,23.5,177.6,24.5z"/>
</g>
<g>
	<path class="st0" d="M245.9,198.1c2.7,0.9,4,1.9,4,2.9c0,2-14.2,32.2-42.7,90.6L184,347.5h1.1c8.1-11.3,16-17,23.8-17h7.1
		c0.8,0,2.5,1.7,5,5v3c0,4.3-4.3,11-12.9,19.9c5-2.3,12.3-8,21.9-17h1l5,1.1v2.1c-15.2,17.1-30.8,25.7-46.9,25.7h-5l-5-0.8
		c-6.6,13.6-11.9,22.2-15.8,25.7h-4.1l-2.9-1.9c31.8-80.9,60-143.9,84.6-189.2l-1-2.1C241.3,199.4,243.3,198.1,245.9,198.1z
		 M183.2,364.5v0.8c13.8-6,23.5-14.6,28.9-25.7v-2.1c0-1.4-0.7-2.1-2.1-2.1C203.4,337.1,194.5,346.8,183.2,364.5z"/>
	<path class="st0" d="M266.5,319.2h3c1.3,0.3,1.9,1,1.9,2.1v1c-7.9,18.3-11.9,30.2-11.9,36h0.8c7.2-3.9,16.5-9.9,28.1-18.1h1
		c1.1,0.7,2.4,1.1,4,1.1v2.9C278.3,357.4,267,364,259.6,364h-3c-4.1,0-6.1-1.9-6.1-5.8v-1.1c0-4.7,0.7-8.3,2.1-10.9v-1.1h-1
		c-5.8,8-11.8,12-17.8,12h-2.1c-3.5,0-5.5-1-6.1-3v-2.9c0-7.7,5-14.8,14.9-21c3.6-1.9,6.9-2.9,10-2.9c2.9,0.7,5.3,1.1,7.1,1.1
		C262.5,322.3,265.5,319.2,266.5,319.2z M234.7,350.1h0.8c10-8.4,14.9-13.4,14.9-14.9l-1.8-1h-2.1c-5.2,2.8-9.1,7.7-11.9,14.9V350.1
		z"/>
	<path class="st0" d="M295.4,315.5h1c6,0,9,3.3,9,10c-1.9,4.4-2.9,7.5-2.9,9.1c3.9,2.6,6.2,3.9,7.1,3.9v4c0,1.4-1.1,4.7-3.2,10h1.1
		c13.3-9.3,20.9-14,22.8-14h1c1.4,0.2,2.1,0.8,2.1,1.9v2.1c-11.2,10.6-20.1,15.9-27,15.9h-1.8c-4.7,0-7.1-2-7.1-5.9
		c1.9-6.4,2.9-10,2.9-11.1l-1.9-1c-12.5,21.9-21.5,38.9-27,50.8h-5.9c-1.3,0-1.9-0.6-1.9-1.8c6.1-14.7,15.4-32.9,27.8-54.8
		c-1.9,0-3.6-3-5-9.1v-4C288.8,317.5,291.8,315.5,295.4,315.5z M294.5,324.6l1.8,0.8v-2.9C295.1,322.7,294.5,323.3,294.5,324.6z"/>
	<path class="st0" d="M345,327.5h1.8c5.4,0.6,8.2,2.9,8.2,7.1c0,3.6-7.3,7.5-22,11.8c-3.3,7.2-5,11.8-5,14h1
		c8-0.6,18.9-6.9,32.8-18.9h3.2c1.2,0.2,1.8,0.9,1.8,2.1v1.9c-13.3,13.3-24.9,19.9-34.9,19.9h-5.8c-4.7,0-7.1-1.9-7.1-5.8
		c0-3.6,1.7-7.6,5-12l-1-2.1v-1.9c1.4,0,6.4-4.6,14.9-13.8L345,327.5z M341,337.5h0.8l4.1-4C342.9,334.8,341.3,336.1,341,337.5z"/>
	<path class="st0" d="M407.5,240l5,0.8v2.1c0,4-5.7,15.2-17,33.7l-35.8,83.7h1c7.1-2.7,16.7-9.3,28.9-19.9h2.1
		c1.4,0.3,2.1,1,2.1,2.1v2.1c-13.8,14.5-26.1,21.7-36.9,21.7l-1.1,4l2.1,17c0,19.7-7.9,44.9-23.8,75.6c-6.4,11.9-12,17.8-17,17.8
		c-4.1-0.4-6.1-2.4-6.1-5.9c0-13.5,12-48.6,36-105.4c-4.1-6.4-6.1-10.4-6.1-12l5-1.1h1.1l3.9,3.2h1.1
		c24.1-57.5,41.9-97.1,53.7-118.7L407.5,240z M348.9,385.2c-13.7,28.8-23.7,57.7-29.9,86.7v1h0.8c19.9-34.9,29.9-63.8,29.9-86.7v-1
		H348.9z"/>
	<path class="st0" d="M404.8,331c3.5,0,5.8,3.3,6.9,10c0,0.5-1,5.1-2.9,14c5.5-1.9,11.8-6.2,18.8-12.9c1.3-0.7,2.6-1.1,4-1.1
		c1.4,0.7,2.4,1.1,3,1.1v1.8c-9.2,10.7-19.2,16-29.9,16c0,2.5-2.7,5.4-8,8.9h-9c-2.6-1.1-3.9-3.4-3.9-6.8v-1.1
		c0-11.6,5-21.2,14.9-28.8L404.8,331z M392.7,350.9l-1,10v2.9h1c2.5-1.2,4.1-3.2,5-5.9C397.3,357.8,395.7,355.5,392.7,350.9z
		 M401.7,345v3.9h1V345H401.7z M402.7,340v3.9h1.1V340H402.7z"/>
	<path class="st0" d="M445,331c3.5,0,5.8,3.3,6.9,10c0,0.5-1,5.1-2.9,14c5.5-1.9,11.8-6.2,18.8-12.9c1.3-0.7,2.6-1.1,4-1.1
		c1.4,0.7,2.4,1.1,3,1.1v1.8c-9.2,10.7-19.2,16-29.9,16c0,2.5-2.7,5.4-8,8.9h-9c-2.6-1.1-3.9-3.4-3.9-6.8v-1.1
		c0-11.6,5-21.2,14.9-28.8L445,331z M433,350.9l-1,10v2.9h1c2.5-1.2,4.1-3.2,5-5.9C437.6,357.8,435.9,355.5,433,350.9z M442,345v3.9
		h1V345H442z M442.9,340v3.9h1.1V340H442.9z"/>
	<path class="st0" d="M498.5,280h3c1.3,0.2,1.9,0.8,1.9,1.9c0,2.9-3,11.2-9,24.9H645l5,1v3.2c0,1.9-6,2.9-18.1,2.9H628l-2.9-2.1
		H491.6c0,1.2-25.6,61.3-76.8,180.2c1.4,0,2.1,1.1,2.1,3.2c-4.1,9.2-8.2,13.8-12,13.8c-3.3-0.6-5-1.6-5-3l82.8-194.2h-63.9
		c-1.3,0-1.9-0.6-1.9-1.9c0.7-2,2.8-3,6.1-3h60.6c1.1,0,5.4-8.6,13-25.7L498.5,280z"/>
</g>
</svg>
