<?xml version="1.0" encoding="utf-8"?>
<!-- Generator: Adobe Illustrator 22.1.0, SVG Export Plug-In . SVG Version: 6.00 Build 0)  -->
<svg version="1.1" id="Layer_1" xmlns="http://www.w3.org/2000/svg" xmlns:xlink="http://www.w3.org/1999/xlink" x="0px" y="0px"
	 viewBox="0 0 654 247" style="enable-background:new 0 0 654 247;" xml:space="preserve">
<style type="text/css">
	.st0{fill:#FFFFFF;}
</style>
<g>
	<path class="st0" d="M73.6,4.5c2,0.7,3.1,1.4,3.1,2.2c0,1.6-10.9,24.7-32.8,69.4L26.3,119h0.8c6.2-8.7,12.3-13,18.2-13h5.4
		c0.6,0,1.9,1.3,3.8,3.8v2.3c0,3.3-3.3,8.4-9.9,15.3c3.8-1.8,9.4-6.1,16.8-13h0.7l3.8,0.8v1.6c-11.7,13.1-23.6,19.7-35.9,19.7h-3.8
		l-3.8-0.6c-5.1,10.5-9.1,17-12.1,19.7H7.2l-2.2-1.5c24.4-62,46-110.3,64.9-145l-0.7-1.6C70.1,5.5,71.7,4.5,73.6,4.5z M25.6,132v0.6
		c10.6-4.6,18-11.2,22.2-19.7v-1.6c0-1.1-0.5-1.6-1.6-1.6C41.1,111,34.2,118.5,25.6,132z"/>
	<path class="st0" d="M89.4,97.4h2.3c1,0.2,1.5,0.7,1.5,1.6v0.7c-6.1,14-9.1,23.2-9.1,27.6h0.6c5.5-3,12.7-7.6,21.5-13.9h0.7
		c0.8,0.6,1.9,0.8,3.1,0.8v2.2c-11.6,10.2-20.2,15.3-26,15.3h-2.3c-3.1,0-4.7-1.5-4.7-4.5v-0.8c0-3.6,0.5-6.4,1.6-8.4v-0.8H78
		c-4.5,6.1-9,9.2-13.7,9.2h-1.6c-2.7,0-4.2-0.8-4.7-2.3v-2.2c0-5.9,3.8-11.3,11.4-16.1c2.8-1.5,5.3-2.2,7.6-2.2
		c2.3,0.6,4.1,0.8,5.4,0.8C86.4,99.7,88.7,97.4,89.4,97.4z M65.1,121h0.6c7.6-6.4,11.4-10.2,11.4-11.5l-1.4-0.7h-1.6
		c-4,2.1-7,5.9-9.1,11.4V121z"/>
	<path class="st0" d="M111.6,94.5h0.7c4.6,0,6.9,2.5,6.9,7.6c-1.5,3.4-2.2,5.7-2.2,7c3,2,4.8,3,5.4,3v3.1c0,1.1-0.8,3.6-2.4,7.6h0.8
		c10.2-7.1,16-10.7,17.5-10.7h0.7c1.1,0.1,1.6,0.6,1.6,1.5v1.6c-8.6,8.1-15.4,12.2-20.7,12.2h-1.4c-3.6,0-5.4-1.5-5.4-4.6
		c1.5-4.9,2.2-7.7,2.2-8.5l-1.5-0.7c-9.6,16.8-16.5,29.8-20.7,38.9h-4.6c-1,0-1.5-0.5-1.5-1.4c4.7-11.2,11.8-25.2,21.3-42
		c-1.5,0-2.8-2.3-3.8-7v-3.1C106.5,96,108.8,94.5,111.6,94.5z M111,101.5l1.4,0.6v-2.2C111.4,100,111,100.5,111,101.5z"/>
	<path class="st0" d="M149.7,103.7h1.4c4.2,0.4,6.3,2.2,6.3,5.4c0,2.8-5.6,5.8-16.9,9c-2.5,5.5-3.8,9.1-3.8,10.7h0.7
		c6.1-0.4,14.5-5.3,25.1-14.5h2.4c0.9,0.1,1.4,0.7,1.4,1.6v1.5c-10.2,10.2-19.1,15.3-26.7,15.3h-4.5c-3.6,0-5.4-1.5-5.4-4.5
		c0-2.8,1.3-5.8,3.8-9.2l-0.7-1.6v-1.5c1.1,0,4.9-3.5,11.4-10.6L149.7,103.7z M146.6,111.4h0.6l3.2-3.1
		C148.1,109.3,146.8,110.3,146.6,111.4z"/>
	<path class="st0" d="M197.6,36.6l3.8,0.6v1.6c0,3-4.3,11.7-13,25.9l-27.5,64.1h0.7c5.4-2,12.8-7.1,22.2-15.3h1.6
		c1.1,0.2,1.6,0.7,1.6,1.6v1.6c-10.6,11.1-20,16.6-28.3,16.6l-0.8,3.1l1.6,13c0,15.1-6.1,34.5-18.2,58c-4.9,9.1-9.2,13.7-13,13.7
		c-3.1-0.3-4.7-1.8-4.7-4.6c0-10.3,9.2-37.2,27.6-80.8c-3.1-4.9-4.7-8-4.7-9.2l3.8-0.8h0.8l3,2.4h0.8c18.4-44.1,32.2-74.4,41.1-91
		L197.6,36.6z M152.6,147.9c-10.5,22.1-18.2,44.2-22.9,66.5v0.7h0.6c15.3-26.7,22.9-48.9,22.9-66.5v-0.7H152.6z"/>
	<path class="st0" d="M195.5,106.4c2.7,0,4.5,2.5,5.3,7.6c0,0.4-0.7,3.9-2.2,10.7c4.2-1.5,9-4.8,14.4-9.9c1-0.6,2-0.8,3.1-0.8
		c1.1,0.6,1.8,0.8,2.3,0.8v1.4c-7.1,8.2-14.7,12.3-22.9,12.3c0,1.9-2.1,4.2-6.1,6.8h-6.9c-2-0.8-3-2.6-3-5.2v-0.8
		c0-8.9,3.8-16.3,11.4-22.1L195.5,106.4z M186.2,121.6l-0.7,7.6v2.2h0.7c1.9-0.9,3.2-2.4,3.8-4.6
		C189.8,126.9,188.5,125.2,186.2,121.6z M193.1,117.1v3h0.7v-3H193.1z M193.9,113.3v3h0.8v-3H193.9z"/>
	<path class="st0" d="M226.3,106.4c2.7,0,4.5,2.5,5.3,7.6c0,0.4-0.7,3.9-2.2,10.7c4.2-1.5,9-4.8,14.4-9.9c1-0.6,2-0.8,3.1-0.8
		c1.1,0.6,1.8,0.8,2.3,0.8v1.4c-7.1,8.2-14.7,12.3-22.9,12.3c0,1.9-2.1,4.2-6.1,6.8h-6.9c-2-0.8-3-2.6-3-5.2v-0.8
		c0-8.9,3.8-16.3,11.4-22.1L226.3,106.4z M217.1,121.6l-0.7,7.6v2.2h0.7c1.9-0.9,3.2-2.4,3.8-4.6
		C220.6,126.9,219.3,125.2,217.1,121.6z M224,117.1v3h0.7v-3H224z M224.7,113.3v3h0.8v-3H224.7z"/>
	<path class="st0" d="M267.3,67.3h2.3c1,0.1,1.5,0.6,1.5,1.5c0,2.2-2.3,8.6-6.9,19.1h181.8l3.8,0.7V91c0,1.5-4.6,2.2-13.9,2.2h-3
		l-2.2-1.6H262c0,0.9-19.6,47-58.8,138.1c1.1,0,1.6,0.8,1.6,2.4c-3.2,7.1-6.3,10.6-9.2,10.6c-2.5-0.4-3.8-1.2-3.8-2.3l63.5-148.8
		h-49c-1,0-1.5-0.5-1.5-1.5c0.6-1.6,2.1-2.3,4.7-2.3h46.4c0.8,0,4.2-6.6,10-19.7L267.3,67.3z"/>
	<path class="st0" d="M330.3,104c4.5,0.8,6.8,2.7,6.8,5.4c-0.6,3.6-1.6,5.4-3,5.4h-3.8c-1,0-1.5-0.5-1.5-1.6c1-1.7,1.5-3.3,1.5-4.7
		c-6.5,0-12.3,7.4-17.5,22.2c0.5,1.1,0.7,1.8,0.7,2.3h2.2c4.4,0,13.8-6.1,28.3-18.2c0.8-0.6,1.9-0.8,3.1-0.8h0.7
		c1,0.1,1.5,0.6,1.5,1.5v1.6c-14.3,13.8-26.3,20.7-35.8,20.7c-5.1-1-7.6-3.3-7.6-7C311.6,112.9,319.8,104,330.3,104z"/>
	<path class="st0" d="M351.9,94.5h0.7c4.6,0,6.9,2.5,6.9,7.6c-1.5,3.4-2.2,5.7-2.2,7c3,2,4.8,3,5.4,3v3.1c0,1.1-0.8,3.6-2.4,7.6h0.8
		c10.2-7.1,16-10.7,17.5-10.7h0.7c1.1,0.1,1.6,0.6,1.6,1.5v1.6c-8.6,8.1-15.4,12.2-20.7,12.2h-1.4c-3.6,0-5.4-1.5-5.4-4.6
		c1.5-4.9,2.2-7.7,2.2-8.5l-1.5-0.7c-9.6,16.8-16.5,29.8-20.7,38.9H329c-1,0-1.5-0.5-1.5-1.4c4.7-11.2,11.8-25.2,21.3-42
		c-1.5,0-2.8-2.3-3.8-7v-3.1C346.9,96,349.2,94.5,351.9,94.5z M351.3,101.5l1.4,0.6v-2.2C351.8,100,351.3,100.5,351.3,101.5z"/>
	<path class="st0" d="M390,103.7h1.4c4.2,0.4,6.3,2.2,6.3,5.4c0,2.8-5.6,5.8-16.9,9c-2.5,5.5-3.8,9.1-3.8,10.7h0.7
		c6.1-0.4,14.5-5.3,25.1-14.5h2.4c0.9,0.1,1.4,0.7,1.4,1.6v1.5c-10.2,10.2-19.1,15.3-26.7,15.3h-4.5c-3.6,0-5.4-1.5-5.4-4.5
		c0-2.8,1.3-5.8,3.8-9.2l-0.7-1.6v-1.5c1.1,0,4.9-3.5,11.4-10.6L390,103.7z M386.9,111.4h0.6l3.2-3.1
		C388.4,109.3,387.1,110.3,386.9,111.4z"/>
	<path class="st0" d="M429.5,97.4h2.3c1,0.2,1.5,0.7,1.5,1.6v0.7c-6.1,14-9.1,23.2-9.1,27.6h0.6c5.5-3,12.7-7.6,21.5-13.9h0.7
		c0.8,0.6,1.9,0.8,3.1,0.8v2.2c-11.6,10.2-20.2,15.3-26,15.3h-2.3c-3.1,0-4.7-1.5-4.7-4.5v-0.8c0-3.6,0.5-6.4,1.6-8.4v-0.8h-0.7
		c-4.5,6.1-9,9.2-13.7,9.2h-1.6c-2.7,0-4.2-0.8-4.7-2.3v-2.2c0-5.9,3.8-11.3,11.5-16.1c2.8-1.5,5.3-2.2,7.6-2.2
		c2.3,0.6,4.1,0.8,5.4,0.8C426.5,99.7,428.8,97.4,429.5,97.4z M405.1,121h0.6c7.6-6.4,11.5-10.2,11.5-11.5l-1.4-0.7h-1.6
		c-4,2.1-7,5.9-9.1,11.4V121z"/>
	<path class="st0" d="M467.6,67.3h2.3c1,0.1,1.5,0.6,1.5,1.5c0,2.2-2.3,8.6-6.9,19.1h181.8l3.8,0.7V91c0,1.5-4.6,2.2-13.9,2.2h-3
		l-2.2-1.6H462.3c0,0.9-19.6,47-58.8,138.1c1.1,0,1.6,0.8,1.6,2.4c-3.2,7.1-6.3,10.6-9.2,10.6c-2.5-0.4-3.8-1.2-3.8-2.3l63.5-148.8
		h-49c-1,0-1.5-0.5-1.5-1.5c0.6-1.6,2.1-2.3,4.7-2.3h46.4c0.8,0,4.2-6.6,10-19.7L467.6,67.3z"/>
	<path class="st0" d="M466.1,100.9h3c0.8,0,1.5,0.7,2.2,2.2v0.7c0,1.7-2.5,8.6-7.6,20.7v3.8c6.7-3.6,14.1-8.4,22.3-14.4h0.6
		c1,0.4,2,0.6,3.2,0.6v2.3c-9.1,8.5-18,14.1-26.7,16.8h-2.3c-3.1,0-4.7-1.5-4.7-4.5c0-3.6,2.8-11.8,8.5-24.5
		c-0.6-1.1-0.8-1.8-0.8-2.2L466.1,100.9z M484.3,65.7h4.7v4.7c-4.9,1.5-8,2.2-9.2,2.2h-2.2c-1.1,0-1.6-0.5-1.6-1.5
		C476,70.4,478.8,68.6,484.3,65.7z"/>
	<path class="st0" d="M516.6,93.3l3,0.8v4.6l-6.1,9.9v0.8c1.8,3,4.8,4.6,9.2,4.6v2.2c0,1.1-0.5,1.6-1.6,1.6h-3.8
		c-2.1,0-4.7-1.3-7.6-3.8c-10.8,16.8-18.7,25.1-23.5,25.1h-0.8c-2.6,0-4.4-1.3-5.4-3.8c2.5-14.6,5.9-23.8,10.1-27.5l3.8,0.7v0.8
		c-5.1,14.2-7.6,22.6-7.6,25.1c4.5-3.6,11.3-11.7,20.5-24.4c-0.9-3.8-1.4-5.9-1.4-6.1C507.9,96.9,511.7,93.3,516.6,93.3z"/>
	<path class="st0" d="M533,103.7h1.4c4.2,0.4,6.3,2.2,6.3,5.4c0,2.8-5.6,5.8-16.9,9c-2.5,5.5-3.8,9.1-3.8,10.7h0.7
		c6.1-0.4,14.5-5.3,25.1-14.5h2.4c0.9,0.1,1.4,0.7,1.4,1.6v1.5c-10.2,10.2-19.1,15.3-26.7,15.3h-4.5c-3.6,0-5.4-1.5-5.4-4.5
		c0-2.8,1.3-5.8,3.8-9.2l-0.7-1.6v-1.5c1.1,0,4.9-3.5,11.4-10.6L533,103.7z M529.9,111.4h0.6l3.2-3.1
		C531.4,109.3,530.1,110.3,529.9,111.4z"/>
</g>
</svg>
