<?xml version="1.0" encoding="utf-8"?>
<!-- Generator: Adobe Illustrator 22.1.0, SVG Export Plug-In . SVG Version: 6.00 Build 0)  -->
<svg version="1.1" id="Layer_1" xmlns="http://www.w3.org/2000/svg" xmlns:xlink="http://www.w3.org/1999/xlink" x="0px" y="0px"
	 viewBox="0 0 655 709" style="enable-background:new 0 0 655 709;" xml:space="preserve">
<g>
	<path d="M418.7,342.3c-0.1,0.8-0.7,2.2-1.3,2.2c-7.4-0.1-15.1,1.7-21.6-3.6c-0.5-0.4-1.3-1-1.9-0.9c-9,1.6-16.1-3.8-23.9-6.4
		c-0.7-0.2-1.4-0.5-2.1-0.6c-1.1,0-2.2,0.1-3.4,0.2c0.5,1.1,0.7,2.3,1.4,3.2c1.4,1.7,4,3.4,1.2,5.5c-2,1.5-2.1,5.6-7.5,3.1
		c-8.2-3.7-16.1-7.7-24.4-12c-0.2,0,0.2,0,0.5,0c-0.2-0.6-0.3-1.3-0.7-1.8c-0.1-0.1-0.9,0.2-1.4,0.4c0.4,0.5,0.7,0.9,1.6,1.4
		c0,3.5,1.8,5.6,4.8,7c0.9,0.4,1.6,0.9,2.5,1.4c-1,0.3-2,0.7-3.1,0.9c-4.2,1-8.5-0.3-11.5-2.5c-2.9-2.1-5.5-2-8.4-2.1
		c-0.9-3.7-3.4-5-7.8-4.2c0.2-0.8,0.8-1.2,0.8-1.5c0-1-0.3-2-0.5-3c-0.5,0.1-1.5,0.3-1.5,0.4c0,1.2,0.2,2.5,1.2,4.1
		c1.7,3.2,4.2,4.5,7.8,4.2c0.3,0.7,0.6,1.3,0.8,2c0.5,1.3,0.9,2.6,1.4,4c-1.3,0.1-2.9,0.8-3.9,0.3c-2.3-1-4.2-2.8-6.5-3.9
		c-3-1.3-5.2,0.5-5.7,4.2c-0.6,5.4-2,6.2-6.8,4c-0.3-0.2-0.7-0.8-0.8-0.8c-4.2,1.6-4.4-6.5-8.9-3.6c-3.6,2.4-1,6.5-2.2,9.5
		c-1.3,3.3-3.5,6.3-5.2,9.4c-0.7,1.2-1.8,3.5-1.5,3.8c4.5,3.6,0.9,5.6-1.2,8.2c-7.3,9.1-11.1,20-15.1,30.8c-0.6,1.7-0.9,4.1-2.2,4.8
		c-6.5,3.9-7.6,13-15.3,15.7c-0.6,0.2-0.7,1.9-1,3c-3.1,9.8-3,9.9-8.9,16c-2.1,2.1-2.8,4.2-2.8,7c0,1.6-1,3.6-2.1,4.8
		c-1.7,1.8-3.1,3.4-2.4,6c1.5,5.6-1.9,9.7-5.8,11.2c-5,1.9-4.1,3.3-1.4,5.9c1.7,1.7,3.3,3,0.3,5c-1.1,0.8-2.2,2.3-2.3,3.6
		c-0.4,5.5,0.5,11.1-2.1,16.5c-0.9,1.9,2.1,5.5,1.9,8.2c-0.7,7.8,2.4,15.9-2,23.5c-0.9,1.6-0.4,4.7,0.5,6.6
		c2.7,5.8,2.4,11.5,0.2,17.2c-0.4,1-0.9,2.1-0.8,3.1c0.8,5.4-1.6,10.2-2.2,15.3c-0.3,2.3,2.6,5.2,1.9,7c-3.8,9.8-2.4,20.9-8.1,30.3
		c-3.3,5.5-5,11.8-5.9,18.5c-1,7.4-4.6,14.2-8.9,20.6c-2.8,4.1-4.7,8.9-7.5,13.1c-2.9,4.3-6.3,8.3-9.8,12.2
		c-3.6,4-7.4,7.9-11.5,11.5c-7.2,6.3-15.1,11.4-25.2,12c-2.8,0.2-5.5,1.6-8.3,2.2c-2.8,0.5-5.6-0.3-8.6,2c-1.9,1.5-6.2,1.1-8.9,0.2
		c-4.7-1.5-9.5-1.5-14.1-2.5c-4.3-0.9-9.4-0.5-12.8-2.3c-6.2-3.2-13.2-3.6-19.3-6.7c-8.7-4.3-18.3-7.9-25.2-14.2
		c-6.6-6.1-14.7-11.5-18.2-20.8c-2-5.2-8.2-7.4-10.1-13.2c-1.5-4.7-4.2-9.1-6.4-13.5c-0.5-1-1.6-1.7-1.8-2.7c-1.2-5,1.5-10.2-2-15.5
		c-2.5-3.7,1.9-9.8-2.7-13.9c4.8-2.4,0.7-7.8,3.7-11.3c1.3-1.5,4-5.7,1.2-9.3c-0.5-0.6-0.2-2.6,0.3-3c6.5-4.2,4.4-13.4,10.6-17.7
		c-1.7-7.1,4.7-10.4,7.3-15.5c2.5-4.8,4.7-9.7,7-14.5c0.3-0.6,0.7-1.3,1.3-1.8c10.5-8.3,15.1-20.6,22.2-31.3c2.6-4,6.5-7.4,11.7-7.9
		c3.5-0.3,5.5-1.4,6.6-4.8c0.5-1.7,1.9-3.3,3.3-4.4c4.3-3.3,10.4-5.1,8.4-12.7c-0.3-1,3.1-2.5,3.6-4.1c1.1-3.8,5.7-6.9,1.5-12
		c-2.4-2.9-0.2-8.1,3.1-8.1c10,0.2,9.5-8.5,9.7-13.2c0.6-12.1,4.4-23.9,2.8-36.1c-0.2-1.5-0.4-3.2,0-4.6c1.1-3.6,4.7-8.1,3.6-10.4
		c-2.2-4.3-0.6-8.2-1.3-12.2c-0.5-3.3,0.4-6.4,2.1-9.5c2.6-4.7,4.8-9.5,5.1-15.4c0.3-5.1,3.9-9.8,5.6-14.9c1.5-4.8,5.9-8.4,5.7-13.9
		c0-0.9,0.9-2.2,1.7-2.7c6.5-3.5,7.3-11,11.2-16.3c3.7-5.1,5.2-11.7,7.9-17.5c0.7-1.6,2.6-2.9,2.9-4.6c1.3-6.4,8.9-8.5,9.5-15.9
		c0.5-5.8,5.9-10.6,9-15.8c4.6-7.7,3.8-16.9,8.6-24.3c0.5-0.8-0.4-2.9,0.1-3.3c6.6-5.4,5.1-15.4,11.4-20.8c3.5-3,1.8-7.8,4.7-10.8
		c-4.5-5-0.1-7.5,2.7-10.9c3.7-4.4,6.2-9.8,9.6-14.6c6-8.6,13.8-15.2,20.9-22.4c3.2-3.2,8.2-4.7,11.8-7.6c3.6-3,9-2.8,11.6-5.2
		c3-2.8,5.5-6.9,8.6-10c0.7-0.7,2.1-0.5,3.1-0.9c2.7-1,5.6-1.7,7.8-3.4c1.9-1.4,2.6-5.2,4.4-5.6c4.1-0.9,8.4-0.4,12.7-0.1
		c0.6,0,1.5,2.2,1.6,3.4c0.1,1-0.7,2.2-1.1,3.3c1.8-0.2,3.9,0.1,5.4-0.7c1.3-0.6,1.9-3.6,2.9-3.6c4.5-0.2,9.1-0.1,13.5,0.7
		c6.7,1.2,12.1,6.7,19.5,6.2c1.3-0.1,2.8,2.2,4,3.6c1.6,2,2.9,4.2,4.3,6.3c1.3,2,2.3,0.9,3.3-0.3c2-2.5,3.5-6,6.1-7.2
		c3.2-1.5,4.5-3.4,5.4-6.4c0.1-0.3,3.5-0.3,3.6,0.1c1.8,5.9,4.7,8,10.6,4.2c3.3-2.1,7,4.9,9.9,1.1c1.7-2.3,0.6-6.6,1.2-9.9
		c0.4-2.2,4.2-3.6,6.3-2.3c4.4,2.5,9.4,4,12.9,8.1c1.7,2,18.1,8.8,21.5,9.5c8.8,1.9,17.5,4.2,26.1,6.8c12,3.6,20.4,11.4,27.8,20.9
		c1.6,2,3.4,4,4.8,6.1c1,1.5,2.2,3.3,2.1,4.9c-0.4,5.6,3.7,9.4,5.5,14c2.1,5.3,8.5,5.1,13,7.5c1.2,0.7,3.5,0,4.2,0.8
		c5.5,6.2,13.5,8.6,20,13.3c3.1,2.3,5,6.3,7.6,9.4c2.5,2.9,6.9,5.3,7.4,8.4c1,6.3,10.5,4,9.6,11c3.7,3.2,3.1,8.7,7.1,12.3
		c3.4,3.1,4.7,8.7,6.8,13.2c0.3,0.6,0.4,1.8,0,2.3c-4.5,5.4-1.7,11.7-2.2,17.6c-0.8,9.2-2.3,18.2-4.9,27c-1.6,5.4-4.4,10.5-6.8,15.7
		c-1.5,3.2-2.6,7-5,9.4c-4.8,4.6-9.9,9.3-15.7,12.4c-7.2,3.8-14.4,7.7-22.4,10.2c-8.8,2.7-17.2,1.1-25.7,1.1c-3.5-4.5-10,1-13.5-4
		c-0.2-0.3-3.1,0.6-3.7,1.5c-3.4,5.4-8.6,5.1-14.1,5.4c-6,0.4-11.7-2.1-17.9-0.4C425.9,345.1,422.4,343,418.7,342.3
		c-0.2,0,0.2,0,0.5,0c-0.2-0.6-0.3-1.3-0.7-1.8c-0.1-0.1-0.9,0.2-1.4,0.4C417.5,341.3,417.8,341.8,418.7,342.3z M298.1,111.5
		c2.4-1.2,3.8-1.9,5.3-2.7c-0.8-1-1.5-2.6-2.4-2.7c-1.6-0.2-4.1-1.2-4.5,1.6C296.4,108.7,297.4,109.8,298.1,111.5z"/>
	<path d="M653.5,171.6c-0.5,11.1,0.5,18.9-2.4,26.6c-3.7,10.1-14.8,19.9-27.1,21.3c-1.8,0.2-3.9,0.2-5.3,1.1
		c-2.6,1.7-4.6,1.7-7.2,0.1c-1.4-0.9-3.5-1-5.3-1.2c-10.5-1-18.5-8.3-20.1-18.5c-0.8-4.9-4.1-13.5-6.5-16.9
		c-5-7.2-9.2-14.8-9.7-23.7c-0.2-3.3-4.7-6.3-2-9.2c3-3.1,0.4-7.2,2.4-9.4c2.9-3.2,1.9-6.5,1.7-9.7c-0.2-3.6,1.6-5.6,3.8-7.8
		c5.9-5.7,14.4-6.5,20.7-11.4c3.2,4.3,6.1-1.7,9.7-0.2c2.8,1.2,6.4,1.7,9.4,2.1c10.3,1.5,17.8,7.8,25.9,13.1
		c6.4,4.2,7.8,11.7,9.1,18.1C652.5,155.3,655.4,164.9,653.5,171.6z M577.3,134.9c-0.4-0.2-1.2-0.5-2-0.9c-0.3,0.6-0.9,1.4-0.7,1.9
		c0.2,0.7,0.9,1.3,1.4,2C576.3,137.3,576.5,136.7,577.3,134.9z M638.3,162c1.8-0.7,2.4-1,3-1.3c-0.7-0.5-1.3-1.2-2-1.4
		c-0.5-0.1-1.3,0.4-1.9,0.7C637.8,160.8,638.1,161.6,638.3,162z"/>
	<path d="M429.6,42.2c21.8,3.8,16.1,9.9,10.7,16.1c-2.8,3.1-6.3,5.5-10.2,5.7c-3.4,0.2-7.2-1.1-10.2-2.9c-7.1-4.2-13-10.1-19.4-15.2
		c-3.8-3-4.4-9.8-7.8-13.8c-2.7-3.3-3.6-6.2-3.5-10.2c0.3-10.4,5.4-15.4,15.6-15.8c5.5-0.2,10.8,0.9,16.5-1.8
		c4.6-2.2,11.2-0.9,13.6,5c1.7,4.2,4.6,6.9,7.6,9.5C448.1,23.6,451.2,29.1,429.6,42.2c-1.8,3.4-18.8,8.3-16.1,6.6
		c0.2-0.1,0-1.9-1.5-1.2c-3.3,1.5-3.9,1.4-4.4,1.7c0.4,0.4,0.8,1.1,1.1,1c1.2-0.3,2.3-0.8,3.4-1.3"/>
	<path d="M461,43.3c-0.1-6.5,0.4-11.6,3.7-16.8c6.6-10.4,12.7-12.6,24.8-9.6c6.6,1.7,11.5,5.7,17.2,8.6c4.3,2.2,5.6,7.3,7.8,11.6
		c2.4,4.5,3.4,8-0.1,12.1c-0.8,0.9,0.1,3-0.1,4.5c-1.4,8-9.5,14.9-17.6,15c-13.8,0.2-24.7-5.7-34-15.6
		C459.3,49.7,462.3,45.8,461,43.3z"/>
	<path d="M573,76.7c0,13.9-8.1,16.1-18.4,19.9c-1.7,0.6-3.9,0.2-5.3,1c-4.1,2.4-7.5,1.8-11.2-0.9c-3.5-2.6-7.6-4.3-10.9-7
		c-3.4-2.8-6.5-5.7-6.8-11c-0.2-4.1-2.9-8-3.7-12.2c-1.4-7.1,3.2-13.6,11.6-18.6c8.1-4.8,15.7-1.9,22.9,1.4
		c7.9,3.6,14.4,9.3,18.5,17.2C571.4,69.5,571.9,73.2,573,76.7z M560.9,59c-1.4,0.9-2,1.3-2.6,1.7c1.3,1.8,2.6,3.6,3.9,5.4
		c0.2-1,0.9-2.1,0.6-3C562.5,61.6,561.6,60.4,560.9,59z M567.2,70.6c-3-1.2-3.9-1.9-4.2-1.7c-0.9,0.7-1.6,1.8-2.4,2.7
		c0.6,0.4,1.4,1.2,1.8,1.1C563.8,72.3,565,71.6,567.2,70.6z"/>
	<path d="M336,41.6c7.4-3.2,11.1,3.3,16.2,5.8c1.3,0.6,1.5,3.9,2.1,5.9c1.1,3.3,2.3,17.6,2.4,20.2c0.1,4.1-2.5,5.1-5.4,7.2
		c-5.9,4.3-13.7,2.2-19.3,6.7c-7.1-4.8-16-0.3-23.4-4.9c-8.8-5.5-9.3-12.3-4.7-19.9c2.3-3.8,5.1-7.3,8.2-10.5
		c3.1-3.1,6.7-6,10.5-8.1C326.7,41.7,331.2,39.5,336,41.6z"/>
</g>
</svg>
