<?xml version="1.0" encoding="utf-8"?>
<!-- Generator: Adobe Illustrator 22.1.0, SVG Export Plug-In . SVG Version: 6.00 Build 0)  -->
<svg version="1.1" id="Layer_1" xmlns="http://www.w3.org/2000/svg" xmlns:xlink="http://www.w3.org/1999/xlink" x="0px" y="0px"
	 viewBox="0 0 720 454" style="enable-background:new 0 0 720 454;" xml:space="preserve">
<style type="text/css">
	.st0{fill:#FFFFFF;}
</style>
<g>
	<path class="st0" d="M132,1.9c3.9,1.3,5.8,2.7,5.8,4.2c0,2.9-20.6,46.7-61.9,131.1l-33.4,80.9h1.6c11.7-16.4,23.2-24.6,34.4-24.6
		h10.2c1.2,0,3.6,2.4,7.2,7.2v4.4c0,6.3-6.2,15.9-18.6,28.8c7.2-3.3,17.8-11.5,31.6-24.6h1.4l7.2,1.6v3
		c-22,24.8-44.6,37.2-67.9,37.2h-7.2l-7.2-1.2c-9.6,19.8-17.2,32.2-22.8,37.2h-6l-4.2-2.8C48.3,167.3,89.1,76,124.8,10.5l-1.4-3
		C125.4,3.8,128.2,1.9,132,1.9z M41.3,242.8v1.2c20-8.7,34-21.1,41.8-37.2v-3c0-2-1-3-3-3C70.5,203.1,57.6,217.1,41.3,242.8z"/>
	<path class="st0" d="M161.8,177.3h4.4c1.9,0.4,2.8,1.4,2.8,3v1.4c-11.5,26.4-17.2,43.8-17.2,52.1h1.2c10.4-5.6,24-14.3,40.6-26.2
		h1.4c1.6,1.1,3.5,1.6,5.8,1.6v4.2c-21.9,19.2-38.2,28.8-49.1,28.8h-4.4c-5.9,0-8.8-2.8-8.8-8.4v-1.6c0-6.8,1-12.1,3-15.8v-1.6h-1.4
		c-8.4,11.6-17,17.4-25.8,17.4h-3c-5.1,0-8-1.5-8.8-4.4v-4.2c0-11.2,7.2-21.4,21.6-30.4c5.2-2.8,10-4.2,14.4-4.2
		c4.3,1.1,7.7,1.6,10.2,1.6C156,181.7,160.4,177.3,161.8,177.3z M115.8,221.9h1.2c14.4-12.1,21.6-19.4,21.6-21.6l-2.6-1.4h-3
		c-7.5,4-13.2,11.2-17.2,21.6V221.9z"/>
	<path class="st0" d="M203.7,171.9h1.4c8.7,0,13,4.8,13,14.4c-2.8,6.4-4.2,10.8-4.2,13.2c5.6,3.7,9,5.6,10.2,5.6v5.8
		c0,2-1.5,6.8-4.6,14.4h1.6c19.2-13.5,30.2-20.2,33-20.2h1.4c2,0.3,3,1.2,3,2.8v3c-16.2,15.4-29.2,23-39,23h-2.6
		c-6.8,0-10.2-2.9-10.2-8.6c2.8-9.2,4.2-14.5,4.2-16l-2.8-1.4c-18.2,31.8-31.2,56.3-39,73.5h-8.6c-1.9,0-2.8-0.9-2.8-2.6
		c8.8-21.2,22.2-47.7,40.2-79.3c-2.8,0-5.2-4.4-7.2-13.2v-5.8C194.1,174.7,198.5,171.9,203.7,171.9z M202.5,185.1l2.6,1.2v-4.2
		C203.3,182.2,202.5,183.2,202.5,185.1z"/>
	<path class="st0" d="M275.5,189.3h2.6c7.9,0.8,11.8,4.2,11.8,10.2c0,5.2-10.6,10.9-31.8,17c-4.8,10.4-7.2,17.2-7.2,20.2h1.4
		c11.6-0.8,27.4-9.9,47.5-27.4h4.6c1.7,0.3,2.6,1.3,2.6,3v2.8c-19.2,19.2-36,28.8-50.5,28.8h-8.4c-6.8,0-10.2-2.8-10.2-8.4
		c0-5.2,2.4-11,7.2-17.4l-1.4-3v-2.8c2,0,9.2-6.7,21.6-20L275.5,189.3z M269.7,203.7h1.2l6-5.8C272.5,199.8,270.1,201.7,269.7,203.7
		z"/>
	<path class="st0" d="M366,62.6l7.2,1.2v3c0,5.7-8.2,22-24.6,48.9l-51.9,121.1h1.4c10.3-3.9,24.2-13.5,41.8-28.8h3c2,0.4,3,1.4,3,3
		v3c-20,21-37.8,31.4-53.5,31.4l-1.6,5.8l3,24.6c0,28.6-11.5,65.1-34.4,109.5c-9.2,17.2-17.4,25.8-24.6,25.8
		c-5.9-0.5-8.8-3.4-8.8-8.6c0-19.5,17.4-70.3,52.1-152.6c-5.9-9.2-8.8-15-8.8-17.4l7.2-1.6h1.6l5.6,4.6h1.6
		C320.2,152.3,346.1,95,363,63.8L366,62.6z M281.2,272.8c-19.9,41.6-34.3,83.5-43.2,125.5v1.4h1.2c28.8-50.5,43.2-92.3,43.2-125.5
		v-1.4H281.2z"/>
	<path class="st0" d="M362,194.3c5.1,0,8.4,4.8,10,14.4c0,0.7-1.4,7.4-4.2,20.2c8-2.8,17.1-9,27.2-18.6c1.9-1.1,3.8-1.6,5.8-1.6
		c2,1.1,3.5,1.6,4.4,1.6v2.6c-13.3,15.5-27.8,23.2-43.2,23.2c0,3.6-3.9,7.9-11.6,12.8h-13c-3.7-1.6-5.6-4.9-5.6-9.8v-1.6
		c0-16.8,7.2-30.7,21.6-41.6L362,194.3z M344.6,223.1l-1.4,14.4v4.2h1.4c3.6-1.7,6-4.6,7.2-8.6C351.3,233.1,348.9,229.8,344.6,223.1
		z M357.6,214.5v5.6h1.4v-5.6H357.6z M359,207.3v5.6h1.6v-5.6H359z"/>
	<path class="st0" d="M420.3,194.3c5.1,0,8.4,4.8,10,14.4c0,0.7-1.4,7.4-4.2,20.2c8-2.8,17.1-9,27.2-18.6c1.9-1.1,3.8-1.6,5.8-1.6
		c2,1.1,3.5,1.6,4.4,1.6v2.6c-13.4,15.5-27.8,23.2-43.2,23.2c0,3.6-3.9,7.9-11.6,12.8h-13c-3.7-1.6-5.6-4.9-5.6-9.8v-1.6
		c0-16.8,7.2-30.7,21.6-41.6L420.3,194.3z M402.9,223.1l-1.4,14.4v4.2h1.4c3.6-1.7,6-4.6,7.2-8.6
		C409.6,233.1,407.2,229.8,402.9,223.1z M415.9,214.5v5.6h1.4v-5.6H415.9z M417.3,207.3v5.6h1.6v-5.6H417.3z"/>
	<path class="st0" d="M497.8,120.4h4.4c1.9,0.3,2.8,1.2,2.8,2.8c0,4.1-4.3,16.2-13,36h217.8l7.2,1.4v4.6c0,2.8-8.7,4.2-26.2,4.2
		h-5.6l-4.2-3H487.8c0,1.7-37,88.7-111.1,260.9c2,0,3,1.5,3,4.6c-6,13.3-11.8,20-17.4,20c-4.8-0.8-7.2-2.3-7.2-4.4L475,166.5h-92.5
		c-1.9,0-2.8-0.9-2.8-2.8c1.1-2.9,4-4.4,8.8-4.4h87.7c1.6,0,7.9-12.4,18.8-37.2L497.8,120.4z"/>
</g>
</svg>
