<?xml version="1.0" encoding="UTF-8"?><svg id="Layer_1" xmlns="http://www.w3.org/2000/svg" viewBox="0 0 873.6 394.92"><defs><style>.cls-1{fill:#1d169c;}.cls-2{fill:#c48c31;}.cls-3{fill:#ffdb76;}.cls-4{fill:#ad7700;}.cls-5{fill:#18212f;}.cls-6{fill:#a1cbd1;}.cls-7{fill:#3d3df9;}.cls-8{fill:#bee4e7;}</style></defs><rect class="cls-2" x="496.57" y="119.47" width="15" height="15"/><rect class="cls-3" x="496.57" y="104.54" width="15" height="15"/><rect class="cls-3" x="406.96" y="104.54" width="15" height="15"/><rect class="cls-5" x="511.61" y="119.47" width="15" height="15"/><rect class="cls-5" x="511.61" y="104.54" width="15" height="15"/><rect class="cls-5" x="511.61" y="89.52" width="15" height="15"/><rect class="cls-5" x="496.57" y="89.52" width="15" height="15"/><rect class="cls-5" x="436.83" y="89.52" width="15" height="15"/><rect class="cls-5" x="406.97" y="89.52" width="15" height="15"/><rect class="cls-5" x="481.71" y="104.54" width="15" height="15"/><rect class="cls-5" x="466.79" y="104.54" width="15" height="15"/><rect class="cls-7" x="451.84" y="104.54" width="15" height="15"/><rect class="cls-7" x="451.84" y="89.52" width="15" height="15"/><rect class="cls-1" x="451.84" y="74.49" width="15" height="15"/><rect class="cls-1" x="451.84" y="59.47" width="15" height="15"/><rect class="cls-2" x="451.84" y="29.38" width="15" height="15"/><rect class="cls-3" x="436.83" y="29.38" width="15" height="15"/><rect class="cls-3" x="451.84" y="15.03" width="15" height="15"/><rect class="cls-4" x="466.79" y="29.73" width="15" height="15"/><rect class="cls-5" x="436.83" y="104.54" width="15" height="15"/><rect class="cls-5" x="392.04" y="89.52" width="15" height="15"/><rect class="cls-5" x="392.04" y="104.54" width="15" height="15"/><rect class="cls-5" x="392.04" y="119.47" width="15" height="15"/><rect class="cls-5" x="406.97" y="134.3" width="15" height="15"/><rect class="cls-5" x="421.9" y="149.13" width="15" height="15"/><rect class="cls-5" x="436.83" y="149.3" width="15" height="15"/><rect class="cls-5" x="421.9" y="164.11" width="15" height="15"/><rect class="cls-5" x="421.9" y="178.89" width="15" height="15"/><rect class="cls-5" x="422.01" y="193.87" width="15" height="15"/><rect class="cls-6" x="436.83" y="164.11" width="15" height="15"/><rect class="cls-6" x="436.83" y="178.89" width="15" height="15"/><rect class="cls-6" x="436.93" y="193.87" width="15" height="15"/><rect class="cls-6" x="466.68" y="164.11" width="15" height="15"/><rect class="cls-6" x="466.68" y="178.89" width="15" height="15"/><rect class="cls-6" x="466.79" y="193.87" width="15" height="15"/><rect class="cls-8" x="451.86" y="164.11" width="15" height="15"/><rect class="cls-8" x="451.86" y="178.89" width="15" height="15"/><rect class="cls-8" x="451.96" y="193.87" width="15" height="15"/><rect class="cls-5" x="481.68" y="149.13" width="15" height="15"/><rect class="cls-5" x="466.7" y="149.13" width="15" height="15"/><rect class="cls-5" x="451.84" y="149.13" width="15" height="15"/><rect class="cls-5" x="481.68" y="164.11" width="15" height="15"/><rect class="cls-5" x="481.68" y="178.89" width="15" height="15"/><rect class="cls-5" x="481.78" y="193.87" width="15" height="15"/><rect class="cls-5" x="421.89" y="104.54" width="15" height="15"/><rect class="cls-5" x="466.79" y="89.52" width="15" height="15"/><rect class="cls-5" x="466.79" y="74.5" width="15" height="15"/><rect class="cls-5" x="466.79" y="59.48" width="15" height="15"/><rect class="cls-5" x="466.79" y="44.43" width="15" height="15"/><rect class="cls-5" x="481.71" y="44.43" width="15" height="15"/><rect class="cls-5" x="436.83" y="74.5" width="15" height="15"/><rect class="cls-5" x="436.83" y="59.48" width="15" height="15"/><rect class="cls-5" x="436.83" y="44.43" width="15" height="15"/><rect class="cls-5" x="451.84" y="44.43" width="15" height="15"/><rect class="cls-5" x="451.84" width="15" height="15"/><rect class="cls-5" x="421.89" y="44.43" width="15" height="15"/><rect class="cls-5" x="481.71" y="29.38" width="15" height="15"/><rect class="cls-5" x="421.89" y="29.38" width="15" height="15"/><rect class="cls-5" x="436.83" y="15.03" width="15" height="15"/><rect class="cls-5" x="466.79" y="15.03" width="15" height="15"/><rect class="cls-2" x="406.97" y="119.47" width="15" height="15"/><rect class="cls-2" x="481.71" y="134.3" width="15" height="15"/><rect class="cls-5" x="496.57" y="134.3" width="15" height="15"/><rect class="cls-2" x="466.79" y="119.47" width="15" height="15"/><rect class="cls-5" x="451.84" y="119.47" width="15" height="15"/><rect class="cls-2" x="466.79" y="134.3" width="15" height="15"/><rect class="cls-2" x="451.84" y="134.3" width="15" height="15"/><rect class="cls-2" x="436.83" y="119.47" width="15" height="15"/><rect class="cls-3" x="481.71" y="119.47" width="15" height="15"/><rect class="cls-4" x="421.89" y="119.47" width="15" height="15"/><rect class="cls-4" x="421.89" y="134.3" width="15" height="15"/><rect class="cls-4" x="436.83" y="134.3" width="15" height="15"/><rect class="cls-5" x="142.37" y="255.48" width="634.62" height="77.93"/><rect class="cls-5" x="311.08" y="195.01" width="299.33" height="52.56"/><path class="cls-3" d="M324.12,233.21c-.27-3.54-.35-7.11.11-10.64s1.44-6.65,1.21-10.13c-.18-2.67-1.3-5.22-1.37-7.86-.1-3.81.59-5.73-1.1-9.4l-6.48,11.29c5.2-.15,10.39-.13,15.58.13,1.86.09,4,.05,5.83.39,1.1-.32,1.94-.07,2.52.74,1.43,2.35,2.73.86,3.9-4.47-1.75-.35-9.54,6.14-7.9,7.23,2.53-1.79,3.07-2.4,1.62-1.82-1.27.13-2.55.25-3.82.38-2.55.25-5.1.51-7.65.76-8.49.84-10.09,11.67-1.99,14.73,3.11,1.17,6.26,1.63,9.52,2.14,2.34.37,5.96.57,7.56,2.53l-2.2-5.3c.03-.6-1.83,2.95-2.03,3.64-.68,2.35-.66,5.06.28,7.32,2.07,4.96,6.84,6.63,11.81,5.68,9.47-1.8,5.46-16.26-3.99-14.46l-1.15.22,5.78.76.87,1.13,1.02,3.79c-.74.43-.67.13.21-.9.57-.9,1.03-1.86,1.38-2.88.5-1.4.87-2.77.81-4.3-.15-3.88-2.97-6.66-6.16-8.5-6.11-3.51-13.28-2.89-19.73-5.33l-1.99,14.73c6.63-.66,16.33.14,21.44-4.97.08-.08,3.07-3.94,2.58-4.31-2.8,2.16-3.17,2.73-1.11,1.71.98-.23,1.83-.68,2.55-1.34,2.89-2.21,4.18-5.56,3.93-9.12-.5-7.21-7.47-13.51-14.33-14.38-8.31-1.05-16.78-1.15-25.14-.92-6.05.17-8.85,6.15-6.48,11.29l.5,1.08-1.02-3.79c.08,2.31-.47,4.57-.21,6.94.29,2.7,1.38,5.24,1.16,7.96-.51,6.24-1.8,11.92-1.32,18.26.73,9.56,15.74,9.64,15,0h0Z"/><path class="cls-3" d="M412.44,222.43c-2.58.11-5.16.37-7.73.08l3.79,1.02c1.39,1.04-1.15-2.28-1.21-2.64-.22-1.42.61-2.88.98-4.24.45-1.68.72-3.35.95-5.08.03-.23.14-3.17.47-3.52,1.78-1.89,6.87-.68,9-.5,1.26.11,5.01,1.17,6.05.61l.79.2c-1.05-1.24-1.25-1.11-.59.41-.58,3.34-.46,7.14-.22,10.5.14,2.03.48,4.04.54,6.07-.1.86.07.86.53-.02-.43.38-.94.57-1.53.57l-1.23.13c-2.14-.12-2.17.11-.08.68-1.01-1.1-1.84-2.47-2.77-3.62-1.52-1.89-6-4.65-6.66-6.08l1.02,3.79c-.24-1.93-.02-3.84-.14-5.78-.61-9.59-15.61-9.66-15,0,.28,4.44-.35,8.71,2.91,12.33,2.13,2.36,4.96,3.53,7.01,6.05,2.36,2.9,4.16,5.96,7.9,7.2,3.28,1.09,7.74.59,11.03-.23,8.67-2.16,12.54-8.96,11.84-17.47-.65-7.86,1.59-17.48-3.52-24.16-4.82-6.31-14.9-6.36-22.2-6.49-8.27-.15-16.5,3.16-19,11.75-1.09,3.74-1.55,7.81-2.47,11.62-.99,4.07-.79,7.87.93,11.73,1.38,3.11,3.56,6.66,6.42,8.62,3.53,2.42,8.15,1.63,12.2,1.46,9.62-.41,9.67-15.42,0-15h0Z"/><path class="cls-3" d="M481.76,196.61c-1.1,6-1.3,11.93-1.09,18.01s-.45,13.23.94,19.22c1.52,6.56,7.93,6.59,13.39,6.79,6.94.26,13.89.49,20.83.74,9.65.34,9.64-14.66,0-15-4.3-.15-8.59-.3-12.89-.45-3.43-.12-8.69.58-11.92-.57l5.24,5.24c-1.1-4.49-.38-10.43-.54-15.06-.18-4.97-.38-10,.52-14.92,1.74-9.44-12.72-13.48-14.46-3.99h0Z"/><path class="cls-3" d="M561.76,198.19c.26,6.28.39,12.56.34,18.85-.04,5.43-1.42,12.18-.09,17.45,1.54,6.08,7.26,6.31,12.43,6.52,6.56.27,13.12.55,19.67.82,9.65.4,9.63-14.6,0-15-3.93-.16-7.87-.33-11.8-.49-1.97-.08-3.93-.16-5.9-.25-.77-.03-5.05-.93-3.32.31l3.45,4.48c-.3-2.09.41-5.02.46-7.25.07-2.83.11-5.66.11-8.48.01-5.66-.12-11.31-.35-16.96-.39-9.62-15.4-9.67-15,0h0Z"/><path class="cls-5" d="M305.2,194.97v-5.89h5.89v5.89h-5.89ZM305.2,200.71v-5.74h5.89v5.74h-5.89ZM305.2,206.6v-5.89h5.89v5.89h-5.89ZM305.2,212.49v-5.89h5.89v5.89h-5.89ZM305.2,218.35v-5.86h5.89v5.86h-5.89ZM305.2,224.24v-5.89h5.89v5.89h-5.89ZM305.2,230.09v-5.86h5.89v5.86h-5.89ZM305.2,235.98v-5.89h5.89v5.89h-5.89ZM305.2,241.73v-5.74h5.89v5.74h-5.89ZM311.08,194.97v-5.89h5.86v5.89h-5.86ZM311.08,241.73v-5.74h5.86v5.74h-5.86ZM316.94,241.73v5.8h-5.86v-5.8h5.86ZM316.94,194.97v-5.89h5.89v5.89h-5.89ZM316.94,241.73v-5.74h5.89v5.74h-5.89ZM322.83,241.73v5.8h-5.89v-5.8h5.89ZM322.83,194.97v-5.89h5.74v5.89h-5.74ZM322.83,206.6v-5.89h5.74v5.89h-5.74ZM322.83,212.49v-5.89h5.74v5.89h-5.74ZM322.83,224.24v-5.89h5.74v5.89h-5.74ZM322.83,230.09v-5.86h5.74v5.86h-5.74ZM322.83,235.98v-5.89h5.74v5.89h-5.74ZM322.83,241.73v-5.74h5.74v5.74h-5.74ZM328.57,241.73v5.8h-5.74v-5.8h5.74ZM328.57,194.97v-5.89h5.89v5.89h-5.89ZM328.57,206.6v-5.89h5.89v5.89h-5.89ZM328.57,212.49v-5.89h5.89v5.89h-5.89ZM328.57,224.24v-5.89h5.89v5.89h-5.89ZM328.57,230.09v-5.86h5.89v5.86h-5.89ZM328.57,235.98v-5.89h5.89v5.89h-5.89ZM328.57,241.73v-5.74h5.89v5.74h-5.89ZM334.46,241.73v5.8h-5.89v-5.8h5.89ZM334.46,194.97v-5.89h5.89v5.89h-5.89ZM334.46,206.6v-5.89h5.89v5.89h-5.89ZM334.46,212.49v-5.89h5.89v5.89h-5.89ZM334.46,224.24v-5.89h5.89v5.89h-5.89ZM334.46,230.09v-5.86h5.89v5.86h-5.89ZM334.46,235.98v-5.89h5.89v5.89h-5.89ZM334.46,241.73v-5.74h5.89v5.74h-5.89ZM340.35,194.97v-5.89h5.86v5.89h-5.86ZM340.35,241.73v-5.74h5.86v5.74h-5.86ZM346.21,241.73v5.8h-5.86v-5.8h5.86ZM346.21,194.97v-5.89h5.89v5.89h-5.89ZM346.21,200.71v-5.74h5.89v5.74h-5.89ZM346.21,218.35v-5.86h5.89v5.86h-5.89ZM346.21,241.73v-5.74h5.89v5.74h-5.89ZM352.1,241.73v5.8h-5.89v-5.8h5.89ZM352.1,200.71v-5.74h5.86v5.74h-5.86ZM352.1,206.6v-5.89h5.86v5.89h-5.86ZM352.1,212.49v-5.89h5.86v5.89h-5.86ZM352.1,218.35v-5.86h5.86v5.86h-5.86ZM352.1,224.24v-5.89h5.86v5.89h-5.86ZM352.1,230.09v-5.86h5.86v5.86h-5.86ZM352.1,235.98v-5.89h5.86v5.89h-5.86ZM352.1,241.73v-5.74h5.86v5.74h-5.86ZM357.96,241.73v5.8h-5.86v-5.8h5.86ZM357.96,206.6v-5.89h5.77v5.89h-5.77ZM357.96,212.49v-5.89h5.77v5.89h-5.77ZM357.96,218.35v-5.86h5.77v5.86h-5.77ZM357.96,224.24v-5.89h5.77v5.89h-5.77ZM357.96,230.09v-5.86h5.77v5.86h-5.77ZM357.96,235.98v-5.89h5.77v5.89h-5.77ZM357.96,241.73v-5.74h5.77v5.74h-5.77ZM363.73,241.73v5.8h-5.77v-5.8h5.77Z"/><path class="cls-5" d="M391.3,200.71v-5.74h5.89v5.74h-5.89ZM391.3,206.6v-5.89h5.89v5.89h-5.89ZM391.3,212.49v-5.89h5.89v5.89h-5.89ZM391.3,218.35v-5.86h5.89v5.86h-5.89ZM391.3,224.24v-5.89h5.89v5.89h-5.89ZM391.3,230.09v-5.86h5.89v5.86h-5.89ZM391.3,235.98v-5.89h5.89v5.89h-5.89ZM397.19,194.97v-5.89h5.86v5.89h-5.86ZM397.19,200.71v-5.74h5.86v5.74h-5.86ZM397.19,235.98v-5.89h5.86v5.89h-5.86ZM397.19,241.73v-5.74h5.86v5.74h-5.86ZM403.05,194.97v-5.89h5.89v5.89h-5.89ZM403.05,241.73v-5.74h5.89v5.74h-5.89ZM408.94,241.73v5.8h-5.89v-5.8h5.89ZM408.94,194.97v-5.89h5.74v5.89h-5.74ZM408.94,206.6v-5.89h5.74v5.89h-5.74ZM408.94,212.49v-5.89h5.74v5.89h-5.74ZM408.94,218.35v-5.86h5.74v5.86h-5.74ZM408.94,224.24v-5.89h5.74v5.89h-5.74ZM408.94,230.09v-5.86h5.74v5.86h-5.74ZM408.94,241.73v-5.74h5.74v5.74h-5.74ZM414.68,241.73v5.8h-5.74v-5.8h5.74ZM414.68,194.97v-5.89h5.89v5.89h-5.89ZM414.68,206.6v-5.89h5.89v5.89h-5.89ZM414.68,212.49v-5.89h5.89v5.89h-5.89ZM414.68,218.35v-5.86h5.89v5.86h-5.89ZM414.68,224.24v-5.89h5.89v5.89h-5.89ZM414.68,230.09v-5.86h5.89v5.86h-5.89ZM414.68,241.73v-5.74h5.89v5.74h-5.89ZM420.57,241.73v5.8h-5.89v-5.8h5.89ZM420.57,194.97v-5.89h5.89v5.89h-5.89ZM420.57,206.6v-5.89h5.89v5.89h-5.89ZM420.57,212.49v-5.89h5.89v5.89h-5.89ZM420.57,218.35v-5.86h5.89v5.86h-5.89ZM420.57,224.24v-5.89h5.89v5.89h-5.89ZM420.57,230.09v-5.86h5.89v5.86h-5.89ZM420.57,241.73v-5.74h5.89v5.74h-5.89ZM426.46,241.73v5.8h-5.89v-5.8h5.89ZM426.46,194.97v-5.89h5.86v5.89h-5.86ZM426.46,241.73v-5.74h5.86v5.74h-5.86ZM432.32,241.73v5.8h-5.86v-5.8h5.86ZM432.32,194.97v-5.89h5.89v5.89h-5.89ZM432.32,200.71v-5.74h5.89v5.74h-5.89ZM432.32,235.98v-5.89h5.89v5.89h-5.89ZM432.32,241.73v-5.74h5.89v5.74h-5.89ZM438.2,241.73v5.8h-5.89v-5.8h5.89ZM438.2,200.71v-5.74h5.86v5.74h-5.86ZM438.2,206.6v-5.89h5.86v5.89h-5.86ZM438.2,212.49v-5.89h5.86v5.89h-5.86ZM438.2,218.35v-5.86h5.86v5.86h-5.86ZM438.2,224.24v-5.89h5.86v5.89h-5.86ZM438.2,230.09v-5.86h5.86v5.86h-5.86ZM438.2,235.98v-5.89h5.86v5.89h-5.86ZM438.2,241.73v-5.74h5.86v5.74h-5.86ZM444.06,241.73v5.8h-5.86v-5.8h5.86ZM444.06,206.6v-5.89h5.77v5.89h-5.77ZM444.06,212.49v-5.89h5.77v5.89h-5.77ZM444.06,218.35v-5.86h5.77v5.86h-5.77ZM444.06,224.24v-5.89h5.77v5.89h-5.77ZM444.06,230.09v-5.86h5.77v5.86h-5.77ZM444.06,235.98v-5.89h5.77v5.89h-5.77ZM444.06,241.73v-5.74h5.77v5.74h-5.77Z"/><path class="cls-5" d="M477.4,194.97v-5.89h5.89v5.89h-5.89ZM477.4,200.71v-5.74h5.89v5.74h-5.89ZM477.4,206.6v-5.89h5.89v5.89h-5.89ZM477.4,212.49v-5.89h5.89v5.89h-5.89ZM477.4,218.35v-5.86h5.89v5.86h-5.89ZM477.4,224.24v-5.89h5.89v5.89h-5.89ZM477.4,230.09v-5.86h5.89v5.86h-5.89ZM477.4,235.98v-5.89h5.89v5.89h-5.89ZM477.4,241.73v-5.74h5.89v5.74h-5.89ZM483.29,194.97v-5.89h5.86v5.89h-5.86ZM483.29,241.73v-5.74h5.86v5.74h-5.86ZM489.15,241.73v5.8h-5.86v-5.8h5.86ZM489.15,194.97v-5.89h5.89v5.89h-5.89ZM489.15,241.73v-5.74h5.89v5.74h-5.89ZM495.04,241.73v5.8h-5.89v-5.8h5.89ZM495.04,194.97v-5.89h5.74v5.89h-5.74ZM495.04,200.71v-5.74h5.74v5.74h-5.74ZM495.04,206.6v-5.89h5.74v5.89h-5.74ZM495.04,212.49v-5.89h5.74v5.89h-5.74ZM495.04,218.35v-5.86h5.74v5.86h-5.74ZM495.04,224.24v-5.89h5.74v5.89h-5.74ZM495.04,230.09v-5.86h5.74v5.86h-5.74ZM495.04,241.73v-5.74h5.74v5.74h-5.74ZM500.78,241.73v5.8h-5.74v-5.8h5.74ZM500.78,200.71v-5.74h5.89v5.74h-5.89ZM500.78,206.6v-5.89h5.89v5.89h-5.89ZM500.78,212.49v-5.89h5.89v5.89h-5.89ZM500.78,218.35v-5.86h5.89v5.86h-5.89ZM500.78,224.24v-5.89h5.89v5.89h-5.89ZM500.78,230.09v-5.86h5.89v5.86h-5.89ZM500.78,241.73v-5.74h5.89v5.74h-5.89ZM506.67,241.73v5.8h-5.89v-5.8h5.89ZM506.67,230.09v-5.86h5.89v5.86h-5.89ZM506.67,241.73v-5.74h5.89v5.74h-5.89ZM512.56,241.73v5.8h-5.89v-5.8h5.89ZM512.56,230.09v-5.86h5.86v5.86h-5.86ZM512.56,241.73v-5.74h5.86v5.74h-5.86ZM518.42,241.73v5.8h-5.86v-5.8h5.86ZM518.42,230.09v-5.86h5.89v5.86h-5.89ZM518.42,235.98v-5.89h5.89v5.89h-5.89ZM518.42,241.73v-5.74h5.89v5.74h-5.89ZM524.31,241.73v5.8h-5.89v-5.8h5.89ZM524.31,235.98v-5.89h5.86v5.89h-5.86ZM524.31,241.73v-5.74h5.86v5.74h-5.86ZM530.17,241.73v5.8h-5.86v-5.8h5.86Z"/><path class="cls-5" d="M557.65,194.97v-5.89h5.89v5.89h-5.89ZM557.65,200.71v-5.74h5.89v5.74h-5.89ZM557.65,206.6v-5.89h5.89v5.89h-5.89ZM557.65,212.49v-5.89h5.89v5.89h-5.89ZM557.65,218.35v-5.86h5.89v5.86h-5.89ZM557.65,224.24v-5.89h5.89v5.89h-5.89ZM557.65,230.09v-5.86h5.89v5.86h-5.89ZM557.65,235.98v-5.89h5.89v5.89h-5.89ZM557.65,241.73v-5.74h5.89v5.74h-5.89ZM563.54,194.97v-5.89h5.86v5.89h-5.86ZM563.54,241.73v-5.74h5.86v5.74h-5.86ZM569.4,241.73v5.8h-5.86v-5.8h5.86ZM569.4,194.97v-5.89h5.89v5.89h-5.89ZM569.4,241.73v-5.74h5.89v5.74h-5.89ZM575.28,241.73v5.8h-5.89v-5.8h5.89ZM575.28,194.97v-5.89h5.74v5.89h-5.74ZM575.28,200.71v-5.74h5.74v5.74h-5.74ZM575.28,206.6v-5.89h5.74v5.89h-5.74ZM575.28,212.49v-5.89h5.74v5.89h-5.74ZM575.28,218.35v-5.86h5.74v5.86h-5.74ZM575.28,224.24v-5.89h5.74v5.89h-5.74ZM575.28,230.09v-5.86h5.74v5.86h-5.74ZM575.28,241.73v-5.74h5.74v5.74h-5.74ZM581.03,241.73v5.8h-5.74v-5.8h5.74ZM581.03,200.71v-5.74h5.89v5.74h-5.89ZM581.03,206.6v-5.89h5.89v5.89h-5.89ZM581.03,212.49v-5.89h5.89v5.89h-5.89ZM581.03,218.35v-5.86h5.89v5.86h-5.89ZM581.03,224.24v-5.89h5.89v5.89h-5.89ZM581.03,230.09v-5.86h5.89v5.86h-5.89ZM581.03,241.73v-5.74h5.89v5.74h-5.89ZM586.91,241.73v5.8h-5.89v-5.8h5.89ZM586.91,230.09v-5.86h5.89v5.86h-5.89ZM586.91,241.73v-5.74h5.89v5.74h-5.89ZM592.8,241.73v5.8h-5.89v-5.8h5.89ZM592.8,230.09v-5.86h5.86v5.86h-5.86ZM592.8,241.73v-5.74h5.86v5.74h-5.86ZM598.66,241.73v5.8h-5.86v-5.8h5.86ZM598.66,230.09v-5.86h5.89v5.86h-5.89ZM598.66,235.98v-5.89h5.89v5.89h-5.89ZM598.66,241.73v-5.74h5.89v5.74h-5.89ZM604.55,241.73v5.8h-5.89v-5.8h5.89ZM604.55,235.98v-5.89h5.86v5.89h-5.86ZM604.55,241.73v-5.74h5.86v5.74h-5.86ZM610.41,241.73v5.8h-5.86v-5.8h5.86Z"/><polygon class="cls-8" points="149.75 330.11 216.74 328.63 218.2 299.35 235.02 328.63 308.24 330.11 308.24 271.57 331.52 271.57 334.46 328.63 363.73 328.63 371.72 274.87 391.3 279.77 387.16 330.11 479.17 328.63 476.72 271.57 495.04 271.57 498.84 328.63 530.17 330.11 537.83 279.06 557.41 279.06 557.41 330.11 592.8 328.63 594.12 304.26 615.98 314.03 638.03 333.41 679.43 311.45 684.24 328.63 738.03 333.41 762.49 325.72 762.49 288.02 762.49 253.61 646.81 250.57 637.66 265.05 620.89 250.57 483.29 250.57 474.36 265.05 462.06 258.37 456.12 250.57 403.05 252.15 394.24 264.05 386.42 260.27 378.15 250.57 235.02 250.57 233.57 264.05 210.73 252.15 149.75 250.57 149.75 330.11"/><path class="cls-5" d="M142.37,255.48v-9.81h9.81v9.81h-9.81ZM142.37,265.05v-9.57h9.81v9.57h-9.81ZM142.37,274.87v-9.81h9.81v9.81h-9.81ZM142.37,284.68v-9.81h9.81v9.81h-9.81ZM142.37,294.45v-9.77h9.81v9.77h-9.81ZM142.37,304.26v-9.81h9.81v9.81h-9.81ZM142.37,314.03v-9.77h9.81v9.77h-9.81ZM142.37,323.84v-9.81h9.81v9.81h-9.81ZM142.37,333.41v-9.57h9.81v9.57h-9.81ZM152.19,255.48v-9.81h9.77v9.81h-9.77ZM152.19,333.41v-9.57h9.77v9.57h-9.77ZM161.95,333.41v9.67h-9.77v-9.67h9.77ZM161.95,255.48v-9.81h9.81v9.81h-9.81ZM161.95,333.41v-9.57h9.81v9.57h-9.81ZM171.77,333.41v9.67h-9.81v-9.67h9.81ZM171.77,255.48v-9.81h9.57v9.81h-9.57ZM171.77,265.05v-9.57h9.57v9.57h-9.57ZM171.77,274.87v-9.81h9.57v9.81h-9.57ZM171.77,284.68v-9.81h9.57v9.81h-9.57ZM171.77,294.45v-9.77h9.57v9.77h-9.57ZM171.77,304.26v-9.81h9.57v9.81h-9.57ZM171.77,314.03v-9.77h9.57v9.77h-9.57ZM171.77,323.84v-9.81h9.57v9.81h-9.57ZM171.77,333.41v-9.57h9.57v9.57h-9.57ZM181.34,333.41v9.67h-9.57v-9.67h9.57ZM181.34,265.05v-9.57h9.81v9.57h-9.81ZM181.34,274.87v-9.81h9.81v9.81h-9.81ZM181.34,284.68v-9.81h9.81v9.81h-9.81ZM181.34,294.45v-9.77h9.81v9.77h-9.81ZM181.34,304.26v-9.81h9.81v9.81h-9.81ZM181.34,314.03v-9.77h9.81v9.77h-9.81ZM181.34,323.84v-9.81h9.81v9.81h-9.81ZM181.34,333.41v-9.57h9.81v9.57h-9.81ZM191.15,333.41v9.67h-9.81v-9.67h9.81Z"/><path class="cls-5" d="M181.34,255.48v-9.81h9.81v9.81h-9.81ZM181.34,265.05v-9.57h9.81v9.57h-9.81ZM181.34,274.87v-9.81h9.81v9.81h-9.81ZM181.34,284.68v-9.81h9.81v9.81h-9.81ZM181.34,294.45v-9.77h9.81v9.77h-9.81ZM181.34,304.26v-9.81h9.81v9.81h-9.81ZM181.34,314.03v-9.77h9.81v9.77h-9.81ZM181.34,323.84v-9.81h9.81v9.81h-9.81ZM181.34,333.41v-9.57h9.81v9.57h-9.81ZM191.15,255.48v-9.81h9.77v9.81h-9.77ZM191.15,333.41v-9.57h9.77v9.57h-9.77ZM200.92,333.41v9.67h-9.77v-9.67h9.77ZM200.92,255.48v-9.81h9.81v9.81h-9.81ZM200.92,333.41v-9.57h9.81v9.57h-9.81ZM210.73,333.41v9.67h-9.81v-9.67h9.81ZM210.73,255.48v-9.81h9.57v9.81h-9.57ZM210.73,265.05v-9.57h9.57v9.57h-9.57ZM210.73,294.45v-9.77h9.57v9.77h-9.57ZM210.73,304.26v-9.81h9.57v9.81h-9.57ZM210.73,314.03v-9.77h9.57v9.77h-9.57ZM210.73,323.84v-9.81h9.57v9.81h-9.57ZM210.73,333.41v-9.57h9.57v9.57h-9.57ZM220.3,333.41v9.67h-9.57v-9.67h9.57ZM220.3,265.05v-9.57h9.81v9.57h-9.81ZM220.3,274.87v-9.81h9.81v9.81h-9.81ZM220.3,304.26v-9.81h9.81v9.81h-9.81ZM220.3,314.03v-9.77h9.81v9.77h-9.81ZM220.3,323.84v-9.81h9.81v9.81h-9.81ZM220.3,333.41v-9.57h9.81v9.57h-9.81ZM230.12,333.41v9.67h-9.81v-9.67h9.81ZM230.12,255.48v-9.81h9.81v9.81h-9.81ZM230.12,265.05v-9.57h9.81v9.57h-9.81ZM230.12,274.87v-9.81h9.81v9.81h-9.81ZM230.12,284.68v-9.81h9.81v9.81h-9.81ZM230.12,314.03v-9.77h9.81v9.77h-9.81ZM230.12,323.84v-9.81h9.81v9.81h-9.81ZM230.12,333.41v-9.57h9.81v9.57h-9.81ZM239.93,255.48v-9.81h9.77v9.81h-9.77ZM239.93,333.41v-9.57h9.77v9.57h-9.77ZM249.7,333.41v9.67h-9.77v-9.67h9.77ZM249.7,255.48v-9.81h9.81v9.81h-9.81ZM249.7,333.41v-9.57h9.81v9.57h-9.81ZM259.51,333.41v9.67h-9.81v-9.67h9.81ZM259.51,255.48v-9.81h9.77v9.81h-9.77ZM259.51,265.05v-9.57h9.77v9.57h-9.77ZM259.51,274.87v-9.81h9.77v9.81h-9.77ZM259.51,284.68v-9.81h9.77v9.81h-9.77ZM259.51,294.45v-9.77h9.77v9.77h-9.77ZM259.51,304.26v-9.81h9.77v9.81h-9.77ZM259.51,314.03v-9.77h9.77v9.77h-9.77ZM259.51,323.84v-9.81h9.77v9.81h-9.77ZM259.51,333.41v-9.57h9.77v9.57h-9.77ZM269.28,333.41v9.67h-9.77v-9.67h9.77ZM269.28,265.05v-9.57h9.62v9.57h-9.62ZM269.28,274.87v-9.81h9.62v9.81h-9.62ZM269.28,284.68v-9.81h9.62v9.81h-9.62ZM269.28,294.45v-9.77h9.62v9.77h-9.62ZM269.28,304.26v-9.81h9.62v9.81h-9.62ZM269.28,314.03v-9.77h9.62v9.77h-9.62ZM269.28,323.84v-9.81h9.62v9.81h-9.62ZM269.28,333.41v-9.57h9.62v9.57h-9.62ZM278.9,333.41v9.67h-9.62v-9.67h9.62Z"/><path class="cls-5" d="M269.28,255.48v-9.81h9.81v9.81h-9.81ZM269.28,265.05v-9.57h9.81v9.57h-9.81ZM269.28,274.87v-9.81h9.81v9.81h-9.81ZM269.28,284.68v-9.81h9.81v9.81h-9.81ZM269.28,294.45v-9.77h9.81v9.77h-9.81ZM269.28,304.26v-9.81h9.81v9.81h-9.81ZM269.28,314.03v-9.77h9.81v9.77h-9.81ZM269.28,323.84v-9.81h9.81v9.81h-9.81ZM269.28,333.41v-9.57h9.81v9.57h-9.81ZM279.09,255.48v-9.81h9.77v9.81h-9.77ZM279.09,333.41v-9.57h9.77v9.57h-9.77ZM288.86,333.41v9.67h-9.77v-9.67h9.77ZM288.86,255.48v-9.81h9.81v9.81h-9.81ZM288.86,333.41v-9.57h9.81v9.57h-9.81ZM298.67,333.41v9.67h-9.81v-9.67h9.81ZM298.67,255.48v-9.81h9.57v9.81h-9.57ZM298.67,265.05v-9.57h9.57v9.57h-9.57ZM298.67,274.87v-9.81h9.57v9.81h-9.57ZM298.67,284.68v-9.81h9.57v9.81h-9.57ZM298.67,294.45v-9.77h9.57v9.77h-9.57ZM298.67,304.26v-9.81h9.57v9.81h-9.57ZM298.67,314.03v-9.77h9.57v9.77h-9.57ZM298.67,323.84v-9.81h9.57v9.81h-9.57ZM298.67,333.41v-9.57h9.57v9.57h-9.57ZM308.24,333.41v9.67h-9.57v-9.67h9.57ZM308.24,265.05v-9.57h9.81v9.57h-9.81ZM308.24,274.87v-9.81h9.81v9.81h-9.81ZM308.24,284.68v-9.81h9.81v9.81h-9.81ZM308.24,294.45v-9.77h9.81v9.77h-9.81ZM308.24,304.26v-9.81h9.81v9.81h-9.81ZM308.24,314.03v-9.77h9.81v9.77h-9.81ZM308.24,323.84v-9.81h9.81v9.81h-9.81ZM308.24,333.41v-9.57h9.81v9.57h-9.81ZM318.06,333.41v9.67h-9.81v-9.67h9.81Z"/><path class="cls-5" d="M308.24,255.48v-9.81h9.81v9.81h-9.81ZM308.24,265.05v-9.57h9.81v9.57h-9.81ZM308.24,274.87v-9.81h9.81v9.81h-9.81ZM318.06,255.48v-9.81h9.77v9.81h-9.77ZM318.06,274.87v-9.81h9.77v9.81h-9.77ZM327.82,255.48v-9.81h9.81v9.81h-9.81ZM327.82,274.87v-9.81h9.81v9.81h-9.81ZM327.82,284.68v-9.81h9.81v9.81h-9.81ZM327.82,294.45v-9.77h9.81v9.77h-9.81ZM327.82,304.26v-9.81h9.81v9.81h-9.81ZM327.82,314.03v-9.77h9.81v9.77h-9.81ZM327.82,323.84v-9.81h9.81v9.81h-9.81ZM327.82,333.41v-9.57h9.81v9.57h-9.81ZM337.64,255.48v-9.81h9.57v9.81h-9.57ZM337.64,333.41v-9.57h9.57v9.57h-9.57ZM347.21,333.41v9.67h-9.57v-9.67h9.57ZM347.21,255.48v-9.81h9.81v9.81h-9.81ZM347.21,333.41v-9.57h9.81v9.57h-9.81ZM357.02,333.41v9.67h-9.81v-9.67h9.81ZM357.02,255.48v-9.81h9.81v9.81h-9.81ZM357.02,274.87v-9.81h9.81v9.81h-9.81ZM357.02,284.68v-9.81h9.81v9.81h-9.81ZM357.02,294.45v-9.77h9.81v9.77h-9.81ZM357.02,304.26v-9.81h9.81v9.81h-9.81ZM357.02,314.03v-9.77h9.81v9.77h-9.81ZM357.02,323.84v-9.81h9.81v9.81h-9.81ZM357.02,333.41v-9.57h9.81v9.57h-9.81ZM366.84,333.41v9.67h-9.81v-9.67h9.81ZM366.84,255.48v-9.81h9.77v9.81h-9.77ZM366.84,274.87v-9.81h9.77v9.81h-9.77ZM366.84,284.68v-9.81h9.77v9.81h-9.77ZM366.84,294.45v-9.77h9.77v9.77h-9.77ZM366.84,304.26v-9.81h9.77v9.81h-9.77ZM366.84,314.03v-9.77h9.77v9.77h-9.77ZM366.84,323.84v-9.81h9.77v9.81h-9.77ZM366.84,333.41v-9.57h9.77v9.57h-9.77ZM376.6,333.41v9.67h-9.77v-9.67h9.77ZM376.6,255.48v-9.81h19.63v9.81h-19.63ZM376.6,265.05v-9.57h9.81v9.57h-9.81ZM376.6,274.87v-9.81h9.81v9.81h-9.81ZM376.6,284.68v-9.81h9.81v9.81h-9.81ZM386.42,265.05v-9.57h9.77v9.57h-9.77ZM386.42,274.87v-9.81h9.77v9.81h-9.77ZM386.42,284.68v-9.81h9.77v9.81h-9.77Z"/><path class="cls-5" d="M386.42,265.05v-9.57h9.81v9.57h-9.81ZM386.42,274.87v-9.81h9.81v9.81h-9.81ZM386.42,284.68v-9.81h9.81v9.81h-9.81ZM386.42,294.45v-9.77h9.81v9.77h-9.81ZM386.42,304.26v-9.81h9.81v9.81h-9.81ZM386.42,314.03v-9.77h9.81v9.77h-9.81ZM386.42,323.84v-9.81h9.81v9.81h-9.81ZM386.42,333.41v-9.57h9.81v9.57h-9.81ZM396.23,255.48v-9.81h9.77v9.81h-9.77ZM396.23,265.05v-9.57h9.77v9.57h-9.77ZM396.23,333.41v-9.57h9.77v9.57h-9.77ZM406,333.41v9.67h-9.77v-9.67h9.77ZM406,255.48v-9.81h9.81v9.81h-9.81ZM406,333.41v-9.57h9.81v9.57h-9.81ZM415.81,333.41v9.67h-9.81v-9.67h9.81ZM415.81,255.48v-9.81h9.57v9.81h-9.57ZM415.81,274.87v-9.81h9.57v9.81h-9.57ZM415.81,284.68v-9.81h9.57v9.81h-9.57ZM415.81,294.45v-9.77h9.57v9.77h-9.57ZM415.81,314.03v-9.77h9.57v9.77h-9.57ZM415.81,323.84v-9.81h9.57v9.81h-9.57ZM415.81,333.41v-9.57h9.57v9.57h-9.57ZM425.38,333.41v9.67h-9.57v-9.67h9.57ZM425.38,255.48v-9.81h9.81v9.81h-9.81ZM425.38,274.87v-9.81h9.81v9.81h-9.81ZM425.38,284.68v-9.81h9.81v9.81h-9.81ZM425.38,294.45v-9.77h9.81v9.77h-9.81ZM425.38,314.03v-9.77h9.81v9.77h-9.81ZM425.38,323.84v-9.81h9.81v9.81h-9.81ZM425.38,333.41v-9.57h9.81v9.57h-9.81ZM435.2,333.41v9.67h-9.81v-9.67h9.81ZM435.2,255.48v-9.81h9.81v9.81h-9.81ZM435.2,274.87v-9.81h9.81v9.81h-9.81ZM435.2,284.68v-9.81h9.81v9.81h-9.81ZM435.2,294.45v-9.77h9.81v9.77h-9.81ZM435.2,314.03v-9.77h9.81v9.77h-9.81ZM435.2,323.84v-9.81h9.81v9.81h-9.81ZM435.2,333.41v-9.57h9.81v9.57h-9.81ZM445.01,255.48v-9.81h9.77v9.81h-9.77ZM445.01,333.41v-9.57h9.77v9.57h-9.77ZM454.78,333.41v9.67h-9.77v-9.67h9.77ZM454.78,255.48v-9.81h9.81v9.81h-9.81ZM454.78,265.05v-9.57h9.81v9.57h-9.81ZM454.78,333.41v-9.57h9.81v9.57h-9.81ZM464.59,333.41v9.67h-9.81v-9.67h9.81ZM464.59,265.05v-9.57h9.77v9.57h-9.77ZM464.59,274.87v-9.81h9.77v9.81h-9.77ZM464.59,284.68v-9.81h9.77v9.81h-9.77ZM464.59,294.45v-9.77h9.77v9.77h-9.77ZM464.59,304.26v-9.81h9.77v9.81h-9.77ZM464.59,314.03v-9.77h9.77v9.77h-9.77ZM464.59,323.84v-9.81h9.77v9.81h-9.77ZM464.59,333.41v-9.57h9.77v9.57h-9.77ZM474.36,333.41v9.67h-9.77v-9.67h9.77ZM474.36,274.87v-9.81h9.62v9.81h-9.62ZM474.36,284.68v-9.81h9.62v9.81h-9.62ZM474.36,294.45v-9.77h9.62v9.77h-9.62ZM474.36,304.26v-9.81h9.62v9.81h-9.62ZM474.36,314.03v-9.77h9.62v9.77h-9.62ZM474.36,323.84v-9.81h9.62v9.81h-9.62ZM474.36,333.41v-9.57h9.62v9.57h-9.62ZM483.98,333.41v9.67h-9.62v-9.67h9.62Z"/><path class="cls-5" d="M464.59,255.48v-9.81h19.58v9.81h-19.58ZM474.36,265.05v-9.57h9.81v9.57h-9.81ZM474.36,274.87v-9.81h9.81v9.81h-9.81ZM484.17,255.48v-9.81h9.77v9.81h-9.77ZM484.17,274.87v-9.81h9.77v9.81h-9.77ZM493.94,255.48v-9.81h9.81v9.81h-9.81ZM493.94,274.87v-9.81h9.81v9.81h-9.81ZM493.94,284.68v-9.81h9.81v9.81h-9.81ZM493.94,294.45v-9.77h9.81v9.77h-9.81ZM493.94,304.26v-9.81h9.81v9.81h-9.81ZM493.94,314.03v-9.77h9.81v9.77h-9.81ZM493.94,323.84v-9.81h9.81v9.81h-9.81ZM493.94,333.41v-9.57h9.81v9.57h-9.81ZM503.75,255.48v-9.81h9.57v9.81h-9.57ZM503.75,333.41v-9.57h9.57v9.57h-9.57ZM513.32,333.41v9.67h-9.57v-9.67h9.57ZM513.32,255.48v-9.81h9.81v9.81h-9.81ZM513.32,333.41v-9.57h9.81v9.57h-9.81ZM523.14,333.41v9.67h-9.81v-9.67h9.81ZM523.14,255.48v-9.81h9.81v9.81h-9.81ZM523.14,274.87v-9.81h9.81v9.81h-9.81ZM523.14,284.68v-9.81h9.81v9.81h-9.81ZM523.14,294.45v-9.77h9.81v9.77h-9.81ZM523.14,304.26v-9.81h9.81v9.81h-9.81ZM523.14,314.03v-9.77h9.81v9.77h-9.81ZM523.14,323.84v-9.81h9.81v9.81h-9.81ZM523.14,333.41v-9.57h9.81v9.57h-9.81ZM532.95,333.41v9.67h-9.81v-9.67h9.81ZM532.95,255.48v-9.81h9.77v9.81h-9.77ZM532.95,274.87v-9.81h9.77v9.81h-9.77ZM532.95,284.68v-9.81h9.77v9.81h-9.77ZM532.95,294.45v-9.77h9.77v9.77h-9.77ZM532.95,304.26v-9.81h9.77v9.81h-9.77ZM532.95,314.03v-9.77h9.77v9.77h-9.77ZM532.95,323.84v-9.81h9.77v9.81h-9.77ZM532.95,333.41v-9.57h9.77v9.57h-9.77ZM542.72,333.41v9.67h-9.77v-9.67h9.77ZM542.72,255.48v-9.81h9.81v9.81h-9.81ZM542.72,265.05v-9.57h9.81v9.57h-9.81ZM542.72,274.87v-9.81h9.81v9.81h-9.81ZM542.72,284.68v-9.81h9.81v9.81h-9.81ZM552.53,265.05v-9.57h9.77v9.57h-9.77ZM552.53,274.87v-9.81h9.77v9.81h-9.77ZM552.53,284.68v-9.81h9.77v9.81h-9.77Z"/><path class="cls-5" d="M552.53,255.48v-9.81h9.81v9.81h-9.81ZM552.53,265.05v-9.57h9.81v9.57h-9.81ZM552.53,274.87v-9.81h9.81v9.81h-9.81ZM552.53,284.68v-9.81h9.81v9.81h-9.81ZM552.53,294.45v-9.77h9.81v9.77h-9.81ZM552.53,304.26v-9.81h9.81v9.81h-9.81ZM552.53,314.03v-9.77h9.81v9.77h-9.81ZM552.53,323.84v-9.81h9.81v9.81h-9.81ZM552.53,333.41v-9.57h9.81v9.57h-9.81ZM562.34,255.48v-9.81h9.77v9.81h-9.77ZM562.34,333.41v-9.57h9.77v9.57h-9.77ZM572.11,333.41v9.67h-9.77v-9.67h9.77ZM572.11,255.48v-9.81h9.81v9.81h-9.81ZM572.11,333.41v-9.57h9.81v9.57h-9.81ZM581.92,333.41v9.67h-9.81v-9.67h9.81ZM581.92,255.48v-9.81h9.57v9.81h-9.57ZM581.92,265.05v-9.57h9.57v9.57h-9.57ZM581.92,274.87v-9.81h9.57v9.81h-9.57ZM581.92,284.68v-9.81h9.57v9.81h-9.57ZM581.92,294.45v-9.77h9.57v9.77h-9.57ZM581.92,304.26v-9.81h9.57v9.81h-9.57ZM581.92,314.03v-9.77h9.57v9.77h-9.57ZM581.92,323.84v-9.81h9.57v9.81h-9.57ZM581.92,333.41v-9.57h9.57v9.57h-9.57ZM591.49,333.41v9.67h-9.57v-9.67h9.57ZM591.49,265.05v-9.57h9.81v9.57h-9.81ZM591.49,274.87v-9.81h9.81v9.81h-9.81ZM591.49,284.68v-9.81h9.81v9.81h-9.81ZM591.49,294.45v-9.77h9.81v9.77h-9.81ZM591.49,304.26v-9.81h9.81v9.81h-9.81ZM591.49,314.03v-9.77h9.81v9.77h-9.81ZM591.49,323.84v-9.81h9.81v9.81h-9.81ZM591.49,333.41v-9.57h9.81v9.57h-9.81ZM601.31,333.41v9.67h-9.81v-9.67h9.81Z"/><path class="cls-5" d="M591.49,255.48v-9.81h9.81v9.81h-9.81ZM591.49,265.05v-9.57h9.81v9.57h-9.81ZM591.49,274.87v-9.81h9.81v9.81h-9.81ZM591.49,284.68v-9.81h9.81v9.81h-9.81ZM591.49,294.45v-9.77h9.81v9.77h-9.81ZM591.49,304.26v-9.81h9.81v9.81h-9.81ZM601.31,255.48v-9.81h9.77v9.81h-9.77ZM601.31,304.26v-9.81h9.77v9.81h-9.77ZM601.31,314.03v-9.77h9.77v9.77h-9.77ZM611.07,255.48v-9.81h9.81v9.81h-9.81ZM611.07,314.03v-9.77h9.81v9.77h-9.81ZM611.07,323.84v-9.81h9.81v9.81h-9.81ZM620.89,255.48v-9.81h9.57v9.81h-9.57ZM620.89,265.05v-9.57h9.57v9.57h-9.57ZM620.89,274.87v-9.81h9.57v9.81h-9.57ZM620.89,284.68v-9.81h9.57v9.81h-9.57ZM620.89,294.45v-9.77h9.57v9.77h-9.57ZM620.89,323.84v-9.81h9.57v9.81h-9.57ZM620.89,333.41v-9.57h9.57v9.57h-9.57ZM630.46,265.05v-9.57h9.81v9.57h-9.81ZM630.46,274.87v-9.81h9.81v9.81h-9.81ZM630.46,284.68v-9.81h9.81v9.81h-9.81ZM630.46,294.45v-9.77h9.81v9.77h-9.81ZM630.46,304.26v-9.81h9.81v9.81h-9.81ZM630.46,333.41v-9.57h9.81v9.57h-9.81ZM640.27,333.41v9.67h-9.81v-9.67h9.81ZM640.27,255.48v-9.81h9.81v9.81h-9.81ZM640.27,265.05v-9.57h9.81v9.57h-9.81ZM640.27,274.87v-9.81h9.81v9.81h-9.81ZM640.27,284.68v-9.81h9.81v9.81h-9.81ZM640.27,294.45v-9.77h9.81v9.77h-9.81ZM640.27,323.84v-9.81h9.81v9.81h-9.81ZM640.27,333.41v-9.57h9.81v9.57h-9.81ZM650.09,333.41v9.67h-9.81v-9.67h9.81ZM650.09,255.48v-9.81h9.77v9.81h-9.77ZM650.09,314.03v-9.77h9.77v9.77h-9.77ZM650.09,323.84v-9.81h9.77v9.81h-9.77ZM650.09,333.41v-9.57h9.77v9.57h-9.77ZM659.85,333.41v9.67h-9.77v-9.67h9.77ZM659.85,255.48v-9.81h9.81v9.81h-9.81ZM659.85,304.26v-9.81h9.81v9.81h-9.81ZM659.85,314.03v-9.77h9.81v9.77h-9.81ZM659.85,323.84v-9.81h9.81v9.81h-9.81ZM659.85,333.41v-9.57h9.81v9.57h-9.81ZM669.67,255.48v-9.81h9.77v9.81h-9.77ZM669.67,265.05v-9.57h9.77v9.57h-9.77ZM669.67,274.87v-9.81h9.77v9.81h-9.77ZM669.67,284.68v-9.81h9.77v9.81h-9.77ZM669.67,294.45v-9.77h9.77v9.77h-9.77ZM669.67,304.26v-9.81h9.77v9.81h-9.77ZM669.67,314.03v-9.77h9.77v9.77h-9.77ZM669.67,323.84v-9.81h9.77v9.81h-9.77ZM679.43,265.05v-9.57h9.62v9.57h-9.62ZM679.43,274.87v-9.81h9.62v9.81h-9.62ZM679.43,284.68v-9.81h9.62v9.81h-9.62ZM679.43,294.45v-9.77h9.62v9.77h-9.62ZM679.43,304.26v-9.81h9.62v9.81h-9.62ZM679.43,314.03v-9.77h9.62v9.77h-9.62Z"/><path class="cls-5" d="M679.43,255.48v-9.81h9.81v9.81h-9.81ZM679.43,265.05v-9.57h9.81v9.57h-9.81ZM679.43,274.87v-9.81h9.81v9.81h-9.81ZM679.43,284.68v-9.81h9.81v9.81h-9.81ZM679.43,294.45v-9.77h9.81v9.77h-9.81ZM679.43,304.26v-9.81h9.81v9.81h-9.81ZM679.43,314.03v-9.77h9.81v9.77h-9.81ZM679.43,323.84v-9.81h9.81v9.81h-9.81ZM679.43,333.41v-9.57h9.81v9.57h-9.81ZM689.25,255.48v-9.81h9.77v9.81h-9.77ZM689.25,333.41v-9.57h9.77v9.57h-9.77ZM699.01,333.41v9.67h-9.77v-9.67h9.77ZM699.01,255.48v-9.81h9.81v9.81h-9.81ZM699.01,333.41v-9.57h9.81v9.57h-9.81ZM708.83,333.41v9.67h-9.81v-9.67h9.81ZM708.83,255.48v-9.81h9.57v9.81h-9.57ZM708.83,274.87v-9.81h9.57v9.81h-9.57ZM708.83,284.68v-9.81h9.57v9.81h-9.57ZM708.83,304.26v-9.81h9.57v9.81h-9.57ZM708.83,314.03v-9.77h9.57v9.77h-9.57ZM708.83,333.41v-9.57h9.57v9.57h-9.57ZM718.4,333.41v9.67h-9.57v-9.67h9.57ZM718.4,255.48v-9.81h9.81v9.81h-9.81ZM718.4,274.87v-9.81h9.81v9.81h-9.81ZM718.4,284.68v-9.81h9.81v9.81h-9.81ZM718.4,304.26v-9.81h9.81v9.81h-9.81ZM718.4,314.03v-9.77h9.81v9.77h-9.81ZM718.4,333.41v-9.57h9.81v9.57h-9.81ZM728.21,333.41v9.67h-9.81v-9.67h9.81ZM728.21,255.48v-9.81h9.81v9.81h-9.81ZM728.21,274.87v-9.81h9.81v9.81h-9.81ZM728.21,284.68v-9.81h9.81v9.81h-9.81ZM728.21,304.26v-9.81h9.81v9.81h-9.81ZM728.21,314.03v-9.77h9.81v9.77h-9.81ZM728.21,333.41v-9.57h9.81v9.57h-9.81ZM738.03,333.41v9.67h-9.81v-9.67h9.81ZM738.03,255.48v-9.81h9.77v9.81h-9.77ZM738.03,274.87v-9.81h9.77v9.81h-9.77ZM738.03,284.68v-9.81h9.77v9.81h-9.77ZM738.03,304.26v-9.81h9.77v9.81h-9.77ZM738.03,314.03v-9.77h9.77v9.77h-9.77ZM738.03,333.41v-9.57h9.77v9.57h-9.77ZM747.79,333.41v9.67h-9.77v-9.67h9.77ZM747.79,255.48v-9.81h9.81v9.81h-9.81ZM747.79,274.87v-9.81h9.81v9.81h-9.81ZM747.79,284.68v-9.81h9.81v9.81h-9.81ZM747.79,294.45v-9.77h9.81v9.77h-9.81ZM747.79,304.26v-9.81h9.81v9.81h-9.81ZM747.79,314.03v-9.77h9.81v9.77h-9.81ZM747.79,333.41v-9.57h9.81v9.57h-9.81ZM757.61,333.41v9.67h-9.81v-9.67h9.81ZM757.61,255.48v-9.81h9.77v9.81h-9.77ZM757.61,265.05v-9.57h9.77v9.57h-9.77ZM757.61,274.87v-9.81h9.77v9.81h-9.77ZM757.61,284.68v-9.81h9.77v9.81h-9.77ZM757.61,294.45v-9.77h9.77v9.77h-9.77ZM757.61,304.26v-9.81h9.77v9.81h-9.77ZM757.61,314.03v-9.77h9.77v9.77h-9.77ZM757.61,323.84v-9.81h9.77v9.81h-9.77ZM757.61,333.41v-9.57h9.77v9.57h-9.77ZM767.37,333.41v9.67h-9.77v-9.67h9.77ZM767.37,265.05v-9.57h9.62v9.57h-9.62ZM767.37,274.87v-9.81h9.62v9.81h-9.62ZM767.37,284.68v-9.81h9.62v9.81h-9.62ZM767.37,323.84v-9.81h9.62v9.81h-9.62ZM767.37,333.41v-9.57h9.62v9.57h-9.62ZM776.99,333.41v9.67h-9.62v-9.67h9.62Z"/><polygon class="cls-8" points="784.9 200.71 839.36 207.09 818.86 357.43 772.3 357.43 784.9 200.71"/><path class="cls-5" d="M772.79,205.44l1.65-20.28,20.28,1.65-1.65,20.28-20.28-1.65ZM771.19,225.22l1.6-19.78,20.28,1.65-1.6,19.78-20.28-1.65ZM769.54,245.51l1.65-20.28,20.28,1.65-1.65,20.28-20.28-1.65ZM767.9,265.79l1.65-20.28,20.28,1.65-1.65,20.28-20.28-1.65ZM766.26,285.97l1.64-20.18,20.28,1.65-1.64,20.18-20.28-1.65ZM764.62,306.26l1.65-20.28,20.28,1.65-1.65,20.28-20.28-1.65ZM762.98,326.44l1.64-20.18,20.28,1.65-1.64,20.18-20.28-1.65ZM761.33,346.72l1.65-20.28,20.28,1.65-1.65,20.28-20.28-1.65ZM759.73,366.5l1.6-19.78,20.28,1.65-1.6,19.78-20.28-1.65ZM793.07,207.09l1.65-20.28,20.18,1.64-1.65,20.28-20.18-1.64ZM783.26,328.08l1.64-20.18,20.18,1.64-1.64,20.18-20.18-1.64ZM780.01,368.15l1.6-19.78,20.18,1.64-1.6,19.78-20.18-1.64ZM800.2,369.78l-1.62,19.98-20.18-1.64,1.62-19.98,20.18,1.64ZM813.26,208.73l1.65-20.28,20.28,1.65-1.65,20.28-20.28-1.65ZM806.73,289.25l1.64-20.18,20.28,1.65-1.64,20.18-20.28-1.65ZM805.08,309.54l1.65-20.28,20.28,1.65-1.65,20.28-20.28-1.65ZM803.44,329.72l1.64-20.18,20.28,1.65-1.64,20.18-20.28-1.65ZM801.8,350l1.65-20.28,20.28,1.65-1.65,20.28-20.28-1.65ZM800.2,369.78l1.6-19.78,20.28,1.65-1.6,19.78-20.28-1.65ZM820.48,371.43l-1.62,19.98-20.28-1.65,1.62-19.98,20.28,1.65ZM833.54,210.37l1.65-20.28,19.78,1.6-1.65,20.28-19.78-1.6ZM831.94,230.15l1.6-19.78,19.78,1.6-1.6,19.78-19.78-1.6ZM830.29,250.43l1.65-20.28,19.78,1.6-1.65,20.28-19.78-1.6ZM828.65,270.72l1.65-20.28,19.78,1.6-1.65,20.28-19.78-1.6ZM827.01,290.9l1.64-20.18,19.78,1.6-1.64,20.18-19.78-1.6ZM825.37,311.18l1.65-20.28,19.78,1.6-1.65,20.28-19.78-1.6ZM823.73,331.37l1.64-20.18,19.78,1.6-1.64,20.18-19.78-1.6ZM822.08,351.65l1.65-20.28,19.78,1.6-1.65,20.28-19.78-1.6ZM820.48,371.43l1.6-19.78,19.78,1.6-1.6,19.78-19.78-1.6ZM840.26,373.03l-1.62,19.98-19.78-1.6,1.62-19.98,19.78,1.6ZM851.72,231.75l1.6-19.78,20.28,1.65-1.6,19.78-20.28-1.65ZM850.07,252.04l1.65-20.28,20.28,1.65-1.65,20.28-20.28-1.65ZM848.43,272.32l1.65-20.28,20.28,1.65-1.65,20.28-20.28-1.65ZM846.79,292.5l1.64-20.18,20.28,1.65-1.64,20.18-20.28-1.65ZM845.15,312.79l1.65-20.28,20.28,1.65-1.65,20.28-20.28-1.65Z"/></svg>