<?xml version="1.0" encoding="UTF-8"?>
<svg id="Layer_1" xmlns="http://www.w3.org/2000/svg" version="1.1" viewBox="0 0 736.84 398.13">
  <!-- Generator: Adobe Illustrator 30.5.1, SVG Export Plug-In . SVG Version: 2.1.4 Build 3)  -->
  <defs>
    <style>
      .st0 {
        fill: #00af75;
      }

      .st1 {
        fill: #1d169c;
      }

      .st2 {
        fill: #c48c31;
      }

      .st3 {
        fill: #ffdb76;
      }

      .st4 {
        stroke-width: 4px;
      }

      .st4, .st5 {
        stroke: #506686;
        stroke-miterlimit: 10;
      }

      .st4, .st5, .st6 {
        fill: #18212f;
      }

      .st5 {
        stroke-width: 2px;
      }

      .st7 {
        fill: #ad7700;
      }

      .st8 {
        fill: #a1cbd1;
      }

      .st9 {
        fill: #3d3df9;
      }

      .st10 {
        fill: #bee4e7;
      }
    </style>
  </defs>
  <g>
    <path class="st4" d="M342.46,61.86h14.92v-15h-14.92v.3h-.08v-.3h.08v-.05h14.92v-15h-14.92v.64h-.08v-.64h.08v-14.36h-29.95v149.1h.01v29.75h.08s.03.01.03.01v14.99h44.82v-15h-.11v-44.58h-.1v-.17h.1v.17h14.9v-44.75h-29.78v-45.11ZM357.24,121.89h.14v.08h-.14v-.08ZM357.24,136.72h.14v.17h-.14v-.17ZM342.34,151.55h.04v.17h-.04v-.17ZM342.34,166.54h.03s-.03,0-.03,0h0ZM342.34,181.31h.01v.23h-.01v-.23ZM327.46,31.81h.05v.64h-.05v-.64ZM327.46,46.86h.05v.3h-.05v-.3ZM327.46,121.89h.05v.08h-.05v-.08ZM327.46,136.72h.05v.17h-.05v-.17ZM327.37,151.55h.14v.17h-.14v-.17ZM327.35,166.54h.17s-.17,0-.17,0h0ZM327.35,181.31h.17v.23h-.17v-.23ZM327.63,196.31h-.28s.28-.01.28-.01h0ZM342.46,196.31h-.12s.12-.01.12-.01h0ZM342.46,136.89h-.08v-.17h.08v.17ZM342.46,121.97h-.08v-.08h.08v.08Z"/>
    <path class="st4" d="M357.24,121.89v.08h.14v-.08h-.14ZM357.24,136.72v.17h.14v-.17h-.14ZM357.24,121.89v.08h.14v-.08h-.14ZM267.63,121.89v.08h.08v-.08h-.08ZM282.56,121.89v.08h.07v-.08h-.07ZM342.38,121.89v.08h.08v-.08h-.08ZM357.24,121.89v.08h.14v-.08h-.14ZM327.46,121.89v.08h.05v-.08h-.05ZM342.38,121.89v.08h.08v-.08h-.08ZM327.46,121.89v.08h.05v-.08h-.05ZM327.46,31.81v.64h.05v-.64h-.05ZM297.5,31.81v.64h.06v-.64h-.06ZM327.46,31.81v.64h.05v-.64h-.05ZM327.46,32.16v.29h.05v-.29h-.05ZM327.46,46.86v.3h.05v-.3h-.05ZM342.38,32.16v.29h.08v-.29h-.08ZM342.38,46.86v.3h.08v-.3h-.08ZM297.5,121.89v.08h.06v-.08h-.06ZM267.63,121.89v.08h.08v-.08h-.08ZM267.63,121.89v.08h.08v-.08h-.08ZM267.64,136.72v.17h.07v-.17h-.07ZM267.64,136.72v.17h.07v-.17h-.07ZM282.56,136.72v.17h.08v-.17h-.08ZM282.57,151.55v.17h.07v-.17h-.07ZM282.57,151.55v.17h.07v-.17h-.07ZM297.5,151.55v.17h.07v-.17h-.07ZM342.34,151.55v.17h.04v-.17h-.04ZM357.24,151.55v.17h.1v-.17h-.1ZM327.37,151.55v.17h.14v-.17h-.14ZM342.34,151.55v.17h.03v-.17h-.03ZM327.37,151.55v.17h.14v-.17h-.14ZM282.56,121.89v.08h.08v-.08h-.08ZM297.5,121.89v.08h.06v-.08h-.06ZM327.46,46.86v.3h.05v-.3h-.05ZM342.38,46.86v.3h.08v-.3h-.08ZM342.38,46.86v.3h.08v-.3h-.08ZM327.46,46.86v.3h.05v-.3h-.05ZM297.5,31.81v.64h.06v-.64h-.06ZM267.63,121.89v.08h.08v-.08h-.08ZM267.64,136.72v.17h.07v-.17h-.07ZM282.56,121.89v.08h.08v-.08h-.08ZM282.56,136.72v.17h.08v-.17h-.08ZM282.57,151.55v.17h.07v-.17h-.07ZM297.5,121.89v.08h.06v-.08h-.06ZM297.5,136.72v.17h.06v-.17h-.06ZM297.5,151.55v.17h.07v-.17h-.07ZM297.5,136.72v.17h.06v-.17h-.06ZM297.5,151.55v.17h.07v-.17h-.07ZM297.5,121.89v.08h.06v-.08h-.06ZM267.63,121.89v.08h.08v-.08h-.08ZM282.56,136.72v.17h.08v-.17h-.08ZM282.56,121.89v.08h.08v-.08h-.08ZM327.37,151.55v.17h.14v-.17h-.14ZM327.46,121.89v.08h.05v-.08h-.05ZM327.46,136.72v.17h.05v-.17h-.05ZM342.34,151.55v.17h.04v-.17h-.04ZM342.38,121.89v.08h.08v-.08h-.08ZM342.38,136.72v.17h.08v-.17h-.08ZM357.24,151.55v.17h.1v-.17h-.1ZM357.24,121.89v.08h.14v-.08h-.14ZM357.24,136.72v.17h.14v-.17h-.14ZM357.24,121.89v.08h.14v-.08h-.14ZM357.24,136.72v.17h.14v-.17h-.14ZM327.46,136.72v.17h.05v-.17h-.05ZM327.37,151.55v.17h.14v-.17h-.14ZM342.38,121.89v.08h.08v-.08h-.08ZM342.38,136.72v.17h.08v-.17h-.08ZM342.34,151.55v.17h.04v-.17h-.04ZM327.46,121.89v.08h.05v-.08h-.05ZM327.46,46.86v.3h.05v-.3h-.05ZM327.46,121.89v.08h.05v-.08h-.05ZM342.38,46.86v.3h.08v-.3h-.08ZM342.38,121.89v.08h.08v-.08h-.08ZM327.46,31.81v.64h.05v-.64h-.05ZM327.46,46.86v.3h.05v-.3h-.05ZM342.38,31.81v.64h.08v-.64h-.08ZM342.38,46.86v.3h.08v-.3h-.08ZM327.46,31.81v.64h.05v-.64h-.05ZM342.38,31.81v.64h.08v-.64h-.08ZM297.5,31.81v.64h.06v-.64h-.06ZM297.5,31.81v.64h.06v-.64h-.06ZM327.46,31.81v.64h.05v-.64h-.05ZM342.38,31.81v.64h.08v-.64h-.08ZM267.64,121.89v.08h.07v-.08h-.07ZM267.64,136.72v.17h.07v-.17h-.07ZM282.56,121.89v.08h.08v-.08h-.08ZM282.56,136.72v.17h.08v-.17h-.08ZM342.38,136.72v.17h.08v-.17h-.08ZM357.24,151.55v.17h.1v-.17h-.1ZM357.24,136.72v.17h.14v-.17h-.14ZM357.24,151.55v.17h.1v-.17h-.1ZM357.24,136.72v.17h.14v-.17h-.14ZM327.46,121.89v.08h.05v-.08h-.05ZM327.46,136.72v.17h.05v-.17h-.05ZM342.38,121.89v.08h.08v-.08h-.08ZM342.38,136.72v.17h.08v-.17h-.08ZM327.46,121.89v.08h.05v-.08h-.05ZM327.46,136.72v.17h.05v-.17h-.05ZM327.46,136.72v.17h.05v-.17h-.05ZM327.46,151.55v.17h.05v-.17h-.05ZM342.34,151.55v.17h.04v-.17h-.04ZM342.38,136.72v.17h.08v-.17h-.08ZM327.37,151.55v.17h.14v-.17h-.14ZM327.46,136.72v.17h.05v-.17h-.05ZM297.5,121.89v.08h.06v-.08h-.06ZM297.5,136.72v.17h.06v-.17h-.06ZM342.38,121.89v.08h.08v-.08h-.08ZM342.38,136.72v.17h.08v-.17h-.08ZM357.24,121.89v.08h.14v-.08h-.14ZM357.24,136.72v.17h.14v-.17h-.14ZM282.56,136.72v.17h.08v-.17h-.08ZM282.56,121.89v.08h.08v-.08h-.08ZM297.5,121.89v.08h.06v-.08h-.06ZM297.5,136.72v.17h.06v-.17h-.06ZM282.56,136.72v.17h.08v-.17h-.08ZM282.57,151.55v.17h.07v-.17h-.07ZM297.5,136.72v.17h.06v-.17h-.06ZM297.5,151.55v.17h.06v-.17h-.06ZM297.5,136.72v.17h.06v-.17h-.06ZM297.5,151.55v.17h.07v-.17h-.07ZM342.45,196.3h0s.01.01.01.01h0s-.01-.01-.01-.01ZM342.34,196.3h0s.12.01.12.01h0s-.12-.01-.12-.01ZM342.34,181.31v.23h.01v-.23h-.01ZM342.34,166.54h0s.03,0,.03,0h0s-.03,0-.03,0ZM342.34,181.31v.23h.01v-.23h-.01ZM327.35,166.54h0s.16,0,.16,0h0s-.16,0-.16,0ZM342.34,166.54h0s.03,0,.03,0h0s-.03,0-.03,0ZM327.37,166.54h0s.15,0,.15,0h0s-.15,0-.15,0ZM342.34,166.54h0s.03,0,.03,0h0s-.03,0-.03,0ZM327.35,196.3h0s.28.01.28.01h0s-.28-.01-.28-.01ZM327.35,181.31v.23h.17v-.23h-.17ZM327.35,196.3h0s.17.01.17.01h0s-.17-.01-.17-.01ZM312.52,196.3h0s.08.01.08.01h0s-.08-.01-.08-.01ZM327.35,181.31v.23h.17v-.23h-.17ZM327.35,166.54h0s.17,0,.17,0h0s-.17,0-.17,0ZM342.34,196.3h0s.12.01.12.01h0s-.12-.01-.12-.01ZM327.46,196.3h0s.17.01.17.01h0s-.17-.01-.17-.01ZM342.34,196.3h0s.01.01.01.01h0s-.01-.01-.01-.01ZM342.34,181.31v.23h.01v-.23h-.01ZM327.35,196.3h0s.28.01.28.01h0s-.28-.01-.28-.01ZM327.35,181.31v.23h.17v-.23h-.17ZM342.34,181.31v.23h.01v-.23h-.01ZM342.34,166.54h0s.01,0,.01,0h0s-.01,0-.01,0ZM327.35,181.31v.23h.17v-.23h-.17ZM327.35,166.54h0s.17,0,.17,0h0s-.17,0-.17,0ZM312.52,196.3h0s.08.01.08.01h0s-.08-.01-.08-.01ZM297.6,196.3h0s.08.01.08.01h0s-.08-.01-.08-.01ZM297.5,196.3h0s.18.01.18.01h0s-.18-.01-.18-.01ZM297.5,181.31v.23h.07v-.23h-.07ZM297.5,181.31v.23h.07v-.23h-.07ZM297.5,166.54v.18h.07v-.18h-.07ZM297.5,196.3h0s.18.01.18.01h0s-.18-.01-.18-.01ZM297.5,196.3h0s.07.01.07.01h0s-.07-.01-.07-.01ZM297.5,181.31v.23h.07v-.23h-.07ZM297.5,181.31v.23h.07v-.23h-.07ZM297.5,166.54v.18h.07v-.18h-.07ZM297.5,166.54v.18h.07v-.18h-.07ZM297.5,166.54h0s.07,0,.07,0h0s-.07,0-.07,0Z"/>
    <rect class="st4" x="252.71" y="91.94" width="29.93" height="15"/>
    <polygon class="st4" points="312.5 46.81 282.56 46.81 282.56 31.81 297.5 31.81 297.5 32.45 297.56 32.45 297.56 31.81 297.5 31.81 297.5 17.45 312.5 17.45 312.5 46.81"/>
    <rect class="st4" x="282.56" y="46.86" width="29.94" height="15"/>
    <rect class="st4" x="297.5" y="61.91" width="15" height="15"/>
    <rect class="st4" x="297.5" y="91.94" width="15" height="15"/>
    <rect class="st4" x="297.5" y="76.93" width="15" height="15"/>
    <path class="st4" d="M312.52,196.3h-.02v-89.33h-59.79v29.92h14.93v-.17h.07v.17h-.07v14.83h14.93v-.17h.07v.17h-.07v44.59h.11v14.99h29.92v-14.99h-.08ZM267.71,121.97h-.08v-.08h.08v.08ZM282.64,136.89h-.08v-.17h.08v.17ZM282.64,121.97h-.08v-.08h.08v.08ZM297.5,121.89h.06v.08h-.06v-.08ZM297.5,136.72h.06v.17h-.06v-.17ZM297.5,151.55h.07v.17h-.07v-.17ZM297.5,166.54h.07v.18h-.07v-.18ZM297.5,181.31h.07v.23h-.07v-.23ZM297.68,196.31h-.18s.18-.01.18-.01h0Z"/>
    <rect class="st4" x="312.51" y="2.43" width="15" height="15"/>
    <rect class="st4" x="372.28" y="91.94" width="15" height="15"/>
    <rect class="st4" x="357.24" y="91.94" width="15" height="15"/>
    <rect class="st4" x="372.28" y="106.97" width="15" height="29.92"/>
  </g>
  <polygon class="st5" points="735.39 215.11 733.78 235.01 732.14 255.41 730.49 275.82 728.86 296.13 726.77 317.8 707.44 315.92 705.11 335.34 703.47 355.74 701.86 375.64 700.24 396.53 679.51 395.15 659.23 393.49 637.96 391.44 639.58 371.34 619.28 369.9 620.89 350 621.18 346.34 548.9 346.52 548.9 336.8 540.09 336.8 540.09 336.81 530.32 336.81 530.32 336.8 521.52 336.8 521.52 346.52 490.08 346.52 490.08 336.8 481.54 336.8 481.54 336.81 471.73 336.81 471.73 336.85 463.01 336.85 463.01 346.52 422.04 346.52 422.04 336.8 413.18 336.8 413.18 336.81 404.39 336.81 404.39 346.52 363.37 346.52 363.37 336.8 354.59 336.8 354.59 336.81 345.67 336.81 345.67 346.52 304.69 346.52 304.69 336.8 296.83 336.8 296.83 346.52 255.89 346.52 255.89 336.8 247.07 336.85 247.07 336.85 238.25 336.85 238.25 346.52 197.27 346.52 197.27 336.8 188.48 336.88 188.48 336.88 179.81 336.88 179.81 346.52 99.53 346.52 99.53 336.8 91.85 336.8 91.85 346.52 11.85 346.52 11.85 336.85 2 336.85 2 247.07 81.96 247.07 81.96 256.89 89.78 256.89 89.78 247.74 170.86 247.74 170.86 244.68 164.96 244.68 164.96 190.81 213.78 190.81 213.78 196.3 256.83 196.3 256.83 190.45 298.86 190.23 298.86 196.77 338.06 196.55 338.06 190.58 362.48 190.58 362.48 196.55 417.27 196.55 417.27 190.33 442.68 190.33 442.68 196.77 472.03 196.77 472.03 247.06 492.13 247.06 492.13 257.61 499.95 257.61 499.95 247.06 628.03 247.06 628.03 257.61 629.39 257.61 629.2 247.55 630.84 227.14 632.45 207.24 634.21 186.55 654.49 188.2 674.68 189.85 694.96 191.51 716.73 192.99 715.12 213.47 735.39 215.11"/>
  <g>
    <rect class="st2" x="357.22" y="121.9" width="15" height="15"/>
    <rect class="st3" x="357.22" y="106.97" width="15" height="15"/>
    <rect class="st3" x="267.62" y="106.97" width="15" height="15"/>
    <rect class="st6" x="372.27" y="121.9" width="15" height="15"/>
    <rect class="st6" x="372.27" y="106.97" width="15" height="15"/>
    <rect class="st6" x="372.27" y="91.95" width="15" height="15"/>
    <rect class="st6" x="357.22" y="91.95" width="15" height="15"/>
    <rect class="st6" x="297.48" y="91.95" width="15" height="15"/>
    <rect class="st6" x="267.62" y="91.95" width="15" height="15"/>
    <rect class="st6" x="342.36" y="106.97" width="15" height="15"/>
    <rect class="st6" x="327.44" y="106.97" width="15" height="15"/>
    <rect class="st9" x="312.49" y="106.97" width="15" height="15"/>
    <rect class="st9" x="312.49" y="91.95" width="15" height="15"/>
    <rect class="st1" x="312.49" y="76.92" width="15" height="15"/>
    <rect class="st1" x="312.49" y="61.9" width="15" height="15"/>
    <rect class="st2" x="312.49" y="31.81" width="15" height="15"/>
    <rect class="st3" x="297.48" y="31.81" width="15" height="15"/>
    <rect class="st3" x="312.49" y="17.46" width="15" height="15"/>
    <rect class="st7" x="327.44" y="32.16" width="15" height="15"/>
    <rect class="st6" x="297.48" y="106.97" width="15" height="15"/>
    <rect class="st6" x="252.69" y="91.95" width="15" height="15"/>
    <rect class="st6" x="252.69" y="106.97" width="15" height="15"/>
    <rect class="st6" x="252.69" y="121.9" width="15" height="15"/>
    <rect class="st6" x="267.62" y="136.73" width="15" height="15"/>
    <rect class="st6" x="282.55" y="151.56" width="15" height="15"/>
    <rect class="st6" x="297.48" y="151.73" width="15" height="15"/>
    <rect class="st6" x="282.55" y="166.54" width="15" height="15"/>
    <rect class="st6" x="282.55" y="181.32" width="15" height="15"/>
    <rect class="st6" x="282.66" y="196.3" width="15" height="15"/>
    <rect class="st8" x="297.48" y="166.54" width="15" height="15"/>
    <rect class="st8" x="297.48" y="181.32" width="15" height="15"/>
    <rect class="st8" x="297.59" y="196.3" width="15" height="15"/>
    <rect class="st8" x="327.34" y="166.54" width="15" height="15"/>
    <rect class="st8" x="327.34" y="181.32" width="15" height="15"/>
    <rect class="st8" x="327.44" y="196.3" width="15" height="15"/>
    <rect class="st10" x="312.51" y="166.54" width="15" height="15"/>
    <rect class="st10" x="312.51" y="181.32" width="15" height="15"/>
    <rect class="st10" x="312.61" y="196.3" width="15" height="15"/>
    <rect class="st6" x="342.33" y="151.56" width="15" height="15"/>
    <rect class="st6" x="327.35" y="151.56" width="15" height="15"/>
    <rect class="st6" x="312.49" y="151.56" width="15" height="15"/>
    <rect class="st6" x="342.33" y="166.54" width="15" height="15"/>
    <rect class="st6" x="342.33" y="181.32" width="15" height="15"/>
    <rect class="st6" x="342.43" y="196.3" width="15" height="15"/>
    <rect class="st6" x="282.54" y="106.97" width="15" height="15"/>
    <rect class="st6" x="327.44" y="91.95" width="15" height="15"/>
    <rect class="st6" x="327.44" y="76.93" width="15" height="15"/>
    <rect class="st6" x="327.44" y="61.91" width="15" height="15"/>
    <rect class="st6" x="327.44" y="46.86" width="15" height="15"/>
    <rect class="st6" x="342.36" y="46.86" width="15" height="15"/>
    <rect class="st6" x="297.48" y="76.93" width="15" height="15"/>
    <rect class="st6" x="297.48" y="61.91" width="15" height="15"/>
    <rect class="st6" x="297.48" y="46.86" width="15" height="15"/>
    <rect class="st6" x="312.49" y="46.86" width="15" height="15"/>
    <rect class="st6" x="312.49" y="2.43" width="15" height="15"/>
    <rect class="st6" x="282.54" y="46.86" width="15" height="15"/>
    <rect class="st6" x="342.36" y="31.81" width="15" height="15"/>
    <rect class="st6" x="282.54" y="31.81" width="15" height="15"/>
    <rect class="st6" x="297.48" y="17.46" width="15" height="15"/>
    <rect class="st6" x="327.44" y="17.46" width="15" height="15"/>
    <rect class="st2" x="267.62" y="121.9" width="15" height="15"/>
    <rect class="st2" x="342.36" y="136.73" width="15" height="15"/>
    <rect class="st6" x="357.22" y="136.73" width="15" height="15"/>
    <rect class="st2" x="327.44" y="121.9" width="15" height="15"/>
    <rect class="st6" x="312.49" y="121.9" width="15" height="15"/>
    <rect class="st2" x="327.44" y="136.73" width="15" height="15"/>
    <rect class="st2" x="312.49" y="136.73" width="15" height="15"/>
    <rect class="st2" x="297.48" y="121.9" width="15" height="15"/>
    <rect class="st3" x="342.36" y="121.9" width="15" height="15"/>
    <rect class="st7" x="282.54" y="121.9" width="15" height="15"/>
    <rect class="st7" x="282.54" y="136.73" width="15" height="15"/>
    <rect class="st7" x="297.48" y="136.73" width="15" height="15"/>
  </g>
  <rect class="st6" x="3.03" y="257.91" width="634.62" height="77.93"/>
  <rect class="st6" x="171.74" y="197.44" width="299.33" height="52.56"/>
  <g>
    <path class="st3" d="M184.77,235.64c-.27-3.54-.35-7.11.11-10.64s1.44-6.65,1.21-10.13c-.18-2.67-1.3-5.22-1.37-7.86-.1-3.81.59-5.73-1.1-9.4l-6.48,11.29c5.2-.15,10.39-.13,15.58.13,1.86.09,4,.05,5.83.39,1.1-.32,1.94-.07,2.52.74,1.43,2.35,2.73.86,3.9-4.47-1.75-.35-9.54,6.14-7.9,7.23,2.53-1.79,3.07-2.4,1.62-1.82-1.27.13-2.55.25-3.82.38-2.55.25-5.1.51-7.65.76-8.49.84-10.09,11.67-1.99,14.73,3.11,1.17,6.26,1.63,9.52,2.14,2.34.37,5.96.57,7.56,2.53l-2.2-5.3c.03-.6-1.83,2.95-2.03,3.64-.68,2.35-.66,5.06.28,7.32,2.07,4.96,6.84,6.63,11.81,5.68,9.47-1.8,5.46-16.26-3.99-14.46l-1.15.22,5.78.76.87,1.13,1.02,3.79c-.74.43-.67.13.21-.9.57-.9,1.03-1.86,1.38-2.88.5-1.4.87-2.77.81-4.3-.15-3.88-2.97-6.66-6.16-8.5-6.11-3.51-13.28-2.89-19.73-5.33l-1.99,14.73c6.63-.66,16.33.14,21.44-4.97.08-.08,3.07-3.94,2.58-4.31-2.8,2.16-3.17,2.73-1.11,1.71.98-.23,1.83-.68,2.55-1.34,2.89-2.21,4.18-5.56,3.93-9.12-.5-7.21-7.47-13.51-14.33-14.38-8.31-1.05-16.78-1.15-25.14-.92-6.05.17-8.85,6.15-6.48,11.29l.5,1.08-1.02-3.79c.08,2.31-.47,4.57-.21,6.94.29,2.7,1.38,5.24,1.16,7.96-.51,6.24-1.8,11.92-1.32,18.26.73,9.56,15.74,9.64,15,0h0Z"/>
    <path class="st3" d="M273.09,224.86c-2.58.11-5.16.37-7.73.08l3.79,1.02c1.39,1.04-1.15-2.28-1.21-2.64-.22-1.42.61-2.88.98-4.24.45-1.68.72-3.35.95-5.08.03-.23.14-3.17.47-3.52,1.78-1.89,6.87-.68,9-.5,1.26.11,5.01,1.17,6.05.61l.79.2c-1.05-1.24-1.25-1.11-.59.41-.58,3.34-.46,7.14-.22,10.5.14,2.03.48,4.04.54,6.07-.1.86.07.86.53-.02-.43.38-.94.57-1.53.57l-1.23.13c-2.14-.12-2.17.11-.08.68-1.01-1.1-1.84-2.47-2.77-3.62-1.52-1.89-6-4.65-6.66-6.08l1.02,3.79c-.24-1.93-.02-3.84-.14-5.78-.61-9.59-15.61-9.66-15,0,.28,4.44-.35,8.71,2.91,12.33,2.13,2.36,4.96,3.53,7.01,6.05,2.36,2.9,4.16,5.96,7.9,7.2,3.28,1.09,7.74.59,11.03-.23,8.67-2.16,12.54-8.96,11.84-17.47-.65-7.86,1.59-17.48-3.52-24.16-4.82-6.31-14.9-6.36-22.2-6.49-8.27-.15-16.5,3.16-19,11.75-1.09,3.74-1.55,7.81-2.47,11.62-.99,4.07-.79,7.87.93,11.73,1.38,3.11,3.56,6.66,6.42,8.62,3.53,2.42,8.15,1.63,12.2,1.46,9.62-.41,9.67-15.42,0-15h0Z"/>
    <path class="st3" d="M342.41,199.04c-1.1,6-1.3,11.93-1.09,18.01s-.45,13.23.94,19.22c1.52,6.56,7.93,6.59,13.39,6.79,6.94.26,13.89.49,20.83.74,9.65.34,9.64-14.66,0-15-4.3-.15-8.59-.3-12.89-.45-3.43-.12-8.69.58-11.92-.57l5.24,5.24c-1.1-4.49-.38-10.43-.54-15.06-.18-4.97-.38-10,.52-14.92,1.74-9.44-12.72-13.48-14.46-3.99h0Z"/>
    <path class="st3" d="M422.41,200.62c.26,6.28.39,12.56.34,18.85-.04,5.43-1.42,12.18-.09,17.45,1.54,6.08,7.26,6.31,12.43,6.52,6.56.27,13.12.55,19.67.82,9.65.4,9.63-14.6,0-15-3.93-.16-7.87-.33-11.8-.49-1.97-.08-3.93-.16-5.9-.25-.77-.03-5.05-.93-3.32.31l3.45,4.48c-.3-2.09.41-5.02.46-7.25.07-2.83.11-5.66.11-8.48.01-5.66-.12-11.31-.35-16.96-.39-9.62-15.4-9.67-15,0h0Z"/>
    <path class="st6" d="M165.85,197.4v-5.89h5.89v5.89h-5.89ZM165.85,203.14v-5.74h5.89v5.74h-5.89ZM165.85,209.03v-5.89h5.89v5.89h-5.89ZM165.85,214.92v-5.89h5.89v5.89h-5.89ZM165.85,220.78v-5.86h5.89v5.86h-5.89ZM165.85,226.67v-5.89h5.89v5.89h-5.89ZM165.85,232.53v-5.86h5.89v5.86h-5.89ZM165.85,238.41v-5.89h5.89v5.89h-5.89ZM165.85,244.16v-5.74h5.89v5.74h-5.89ZM171.74,197.4v-5.89h5.86v5.89h-5.86ZM171.74,244.16v-5.74h5.86v5.74h-5.86ZM177.6,244.16v5.8h-5.86v-5.8h5.86ZM177.6,197.4v-5.89h5.89v5.89h-5.89ZM177.6,244.16v-5.74h5.89v5.74h-5.89ZM183.49,244.16v5.8h-5.89v-5.8h5.89ZM183.49,197.4v-5.89h5.74v5.89h-5.74ZM183.49,209.03v-5.89h5.74v5.89h-5.74ZM183.49,214.92v-5.89h5.74v5.89h-5.74ZM183.49,226.67v-5.89h5.74v5.89h-5.74ZM183.49,232.53v-5.86h5.74v5.86h-5.74ZM183.49,238.41v-5.89h5.74v5.89h-5.74ZM183.49,244.16v-5.74h5.74v5.74h-5.74ZM189.23,244.16v5.8h-5.74v-5.8h5.74ZM189.23,197.4v-5.89h5.89v5.89h-5.89ZM189.23,209.03v-5.89h5.89v5.89h-5.89ZM189.23,214.92v-5.89h5.89v5.89h-5.89ZM189.23,226.67v-5.89h5.89v5.89h-5.89ZM189.23,232.53v-5.86h5.89v5.86h-5.89ZM189.23,238.41v-5.89h5.89v5.89h-5.89ZM189.23,244.16v-5.74h5.89v5.74h-5.89ZM195.12,244.16v5.8h-5.89v-5.8h5.89ZM195.12,197.4v-5.89h5.89v5.89h-5.89ZM195.12,209.03v-5.89h5.89v5.89h-5.89ZM195.12,214.92v-5.89h5.89v5.89h-5.89ZM195.12,226.67v-5.89h5.89v5.89h-5.89ZM195.12,232.53v-5.86h5.89v5.86h-5.89ZM195.12,238.41v-5.89h5.89v5.89h-5.89ZM195.12,244.16v-5.74h5.89v5.74h-5.89ZM201,197.4v-5.89h5.86v5.89h-5.86ZM201,244.16v-5.74h5.86v5.74h-5.86ZM206.86,244.16v5.8h-5.86v-5.8h5.86ZM206.86,197.4v-5.89h5.89v5.89h-5.89ZM206.86,203.14v-5.74h5.89v5.74h-5.89ZM206.86,220.78v-5.86h5.89v5.86h-5.89ZM206.86,244.16v-5.74h5.89v5.74h-5.89ZM212.75,244.16v5.8h-5.89v-5.8h5.89ZM212.75,203.14v-5.74h5.86v5.74h-5.86ZM212.75,209.03v-5.89h5.86v5.89h-5.86ZM212.75,214.92v-5.89h5.86v5.89h-5.86ZM212.75,220.78v-5.86h5.86v5.86h-5.86ZM212.75,226.67v-5.89h5.86v5.89h-5.86ZM212.75,232.53v-5.86h5.86v5.86h-5.86ZM212.75,238.41v-5.89h5.86v5.89h-5.86ZM212.75,244.16v-5.74h5.86v5.74h-5.86ZM218.61,244.16v5.8h-5.86v-5.8h5.86ZM218.61,209.03v-5.89h5.77v5.89h-5.77ZM218.61,214.92v-5.89h5.77v5.89h-5.77ZM218.61,220.78v-5.86h5.77v5.86h-5.77ZM218.61,226.67v-5.89h5.77v5.89h-5.77ZM218.61,232.53v-5.86h5.77v5.86h-5.77ZM218.61,238.41v-5.89h5.77v5.89h-5.77ZM218.61,244.16v-5.74h5.77v5.74h-5.77ZM224.38,244.16v5.8h-5.77v-5.8h5.77Z"/>
    <path class="st6" d="M251.95,203.14v-5.74h5.89v5.74h-5.89ZM251.95,209.03v-5.89h5.89v5.89h-5.89ZM251.95,214.92v-5.89h5.89v5.89h-5.89ZM251.95,220.78v-5.86h5.89v5.86h-5.89ZM251.95,226.67v-5.89h5.89v5.89h-5.89ZM251.95,232.53v-5.86h5.89v5.86h-5.89ZM251.95,238.41v-5.89h5.89v5.89h-5.89ZM257.84,197.4v-5.89h5.86v5.89h-5.86ZM257.84,203.14v-5.74h5.86v5.74h-5.86ZM257.84,238.41v-5.89h5.86v5.89h-5.86ZM257.84,244.16v-5.74h5.86v5.74h-5.86ZM263.7,197.4v-5.89h5.89v5.89h-5.89ZM263.7,244.16v-5.74h5.89v5.74h-5.89ZM269.59,244.16v5.8h-5.89v-5.8h5.89ZM269.59,197.4v-5.89h5.74v5.89h-5.74ZM269.59,209.03v-5.89h5.74v5.89h-5.74ZM269.59,214.92v-5.89h5.74v5.89h-5.74ZM269.59,220.78v-5.86h5.74v5.86h-5.74ZM269.59,226.67v-5.89h5.74v5.89h-5.74ZM269.59,232.53v-5.86h5.74v5.86h-5.74ZM269.59,244.16v-5.74h5.74v5.74h-5.74ZM275.33,244.16v5.8h-5.74v-5.8h5.74ZM275.33,197.4v-5.89h5.89v5.89h-5.89ZM275.33,209.03v-5.89h5.89v5.89h-5.89ZM275.33,214.92v-5.89h5.89v5.89h-5.89ZM275.33,220.78v-5.86h5.89v5.86h-5.89ZM275.33,226.67v-5.89h5.89v5.89h-5.89ZM275.33,232.53v-5.86h5.89v5.86h-5.89ZM275.33,244.16v-5.74h5.89v5.74h-5.89ZM281.22,244.16v5.8h-5.89v-5.8h5.89ZM281.22,197.4v-5.89h5.89v5.89h-5.89ZM281.22,209.03v-5.89h5.89v5.89h-5.89ZM281.22,214.92v-5.89h5.89v5.89h-5.89ZM281.22,220.78v-5.86h5.89v5.86h-5.89ZM281.22,226.67v-5.89h5.89v5.89h-5.89ZM281.22,232.53v-5.86h5.89v5.86h-5.89ZM281.22,244.16v-5.74h5.89v5.74h-5.89ZM287.11,244.16v5.8h-5.89v-5.8h5.89ZM287.11,197.4v-5.89h5.86v5.89h-5.86ZM287.11,244.16v-5.74h5.86v5.74h-5.86ZM292.97,244.16v5.8h-5.86v-5.8h5.86ZM292.97,197.4v-5.89h5.89v5.89h-5.89ZM292.97,203.14v-5.74h5.89v5.74h-5.89ZM292.97,238.41v-5.89h5.89v5.89h-5.89ZM292.97,244.16v-5.74h5.89v5.74h-5.89ZM298.86,244.16v5.8h-5.89v-5.8h5.89ZM298.86,203.14v-5.74h5.86v5.74h-5.86ZM298.86,209.03v-5.89h5.86v5.89h-5.86ZM298.86,214.92v-5.89h5.86v5.89h-5.86ZM298.86,220.78v-5.86h5.86v5.86h-5.86ZM298.86,226.67v-5.89h5.86v5.89h-5.86ZM298.86,232.53v-5.86h5.86v5.86h-5.86ZM298.86,238.41v-5.89h5.86v5.89h-5.86ZM298.86,244.16v-5.74h5.86v5.74h-5.86ZM304.72,244.16v5.8h-5.86v-5.8h5.86ZM304.72,209.03v-5.89h5.77v5.89h-5.77ZM304.72,214.92v-5.89h5.77v5.89h-5.77ZM304.72,220.78v-5.86h5.77v5.86h-5.77ZM304.72,226.67v-5.89h5.77v5.89h-5.77ZM304.72,232.53v-5.86h5.77v5.86h-5.77ZM304.72,238.41v-5.89h5.77v5.89h-5.77ZM304.72,244.16v-5.74h5.77v5.74h-5.77Z"/>
    <path class="st6" d="M338.06,197.4v-5.89h5.89v5.89h-5.89ZM338.06,203.14v-5.74h5.89v5.74h-5.89ZM338.06,209.03v-5.89h5.89v5.89h-5.89ZM338.06,214.92v-5.89h5.89v5.89h-5.89ZM338.06,220.78v-5.86h5.89v5.86h-5.89ZM338.06,226.67v-5.89h5.89v5.89h-5.89ZM338.06,232.53v-5.86h5.89v5.86h-5.89ZM338.06,238.41v-5.89h5.89v5.89h-5.89ZM338.06,244.16v-5.74h5.89v5.74h-5.89ZM343.94,197.4v-5.89h5.86v5.89h-5.86ZM343.94,244.16v-5.74h5.86v5.74h-5.86ZM349.8,244.16v5.8h-5.86v-5.8h5.86ZM349.8,197.4v-5.89h5.89v5.89h-5.89ZM349.8,244.16v-5.74h5.89v5.74h-5.89ZM355.69,244.16v5.8h-5.89v-5.8h5.89ZM355.69,197.4v-5.89h5.74v5.89h-5.74ZM355.69,203.14v-5.74h5.74v5.74h-5.74ZM355.69,209.03v-5.89h5.74v5.89h-5.74ZM355.69,214.92v-5.89h5.74v5.89h-5.74ZM355.69,220.78v-5.86h5.74v5.86h-5.74ZM355.69,226.67v-5.89h5.74v5.89h-5.74ZM355.69,232.53v-5.86h5.74v5.86h-5.74ZM355.69,244.16v-5.74h5.74v5.74h-5.74ZM361.43,244.16v5.8h-5.74v-5.8h5.74ZM361.43,203.14v-5.74h5.89v5.74h-5.89ZM361.43,209.03v-5.89h5.89v5.89h-5.89ZM361.43,214.92v-5.89h5.89v5.89h-5.89ZM361.43,220.78v-5.86h5.89v5.86h-5.89ZM361.43,226.67v-5.89h5.89v5.89h-5.89ZM361.43,232.53v-5.86h5.89v5.86h-5.89ZM361.43,244.16v-5.74h5.89v5.74h-5.89ZM367.32,244.16v5.8h-5.89v-5.8h5.89ZM367.32,232.53v-5.86h5.89v5.86h-5.89ZM367.32,244.16v-5.74h5.89v5.74h-5.89ZM373.21,244.16v5.8h-5.89v-5.8h5.89ZM373.21,232.53v-5.86h5.86v5.86h-5.86ZM373.21,244.16v-5.74h5.86v5.74h-5.86ZM379.07,244.16v5.8h-5.86v-5.8h5.86ZM379.07,232.53v-5.86h5.89v5.86h-5.89ZM379.07,238.41v-5.89h5.89v5.89h-5.89ZM379.07,244.16v-5.74h5.89v5.74h-5.89ZM384.96,244.16v5.8h-5.89v-5.8h5.89ZM384.96,238.41v-5.89h5.86v5.89h-5.86ZM384.96,244.16v-5.74h5.86v5.74h-5.86ZM390.82,244.16v5.8h-5.86v-5.8h5.86Z"/>
    <path class="st6" d="M418.3,197.4v-5.89h5.89v5.89h-5.89ZM418.3,203.14v-5.74h5.89v5.74h-5.89ZM418.3,209.03v-5.89h5.89v5.89h-5.89ZM418.3,214.92v-5.89h5.89v5.89h-5.89ZM418.3,220.78v-5.86h5.89v5.86h-5.89ZM418.3,226.67v-5.89h5.89v5.89h-5.89ZM418.3,232.53v-5.86h5.89v5.86h-5.89ZM418.3,238.41v-5.89h5.89v5.89h-5.89ZM418.3,244.16v-5.74h5.89v5.74h-5.89ZM424.19,197.4v-5.89h5.86v5.89h-5.86ZM424.19,244.16v-5.74h5.86v5.74h-5.86ZM430.05,244.16v5.8h-5.86v-5.8h5.86ZM430.05,197.4v-5.89h5.89v5.89h-5.89ZM430.05,244.16v-5.74h5.89v5.74h-5.89ZM435.94,244.16v5.8h-5.89v-5.8h5.89ZM435.94,197.4v-5.89h5.74v5.89h-5.74ZM435.94,203.14v-5.74h5.74v5.74h-5.74ZM435.94,209.03v-5.89h5.74v5.89h-5.74ZM435.94,214.92v-5.89h5.74v5.89h-5.74ZM435.94,220.78v-5.86h5.74v5.86h-5.74ZM435.94,226.67v-5.89h5.74v5.89h-5.74ZM435.94,232.53v-5.86h5.74v5.86h-5.74ZM435.94,244.16v-5.74h5.74v5.74h-5.74ZM441.68,244.16v5.8h-5.74v-5.8h5.74ZM441.68,203.14v-5.74h5.89v5.74h-5.89ZM441.68,209.03v-5.89h5.89v5.89h-5.89ZM441.68,214.92v-5.89h5.89v5.89h-5.89ZM441.68,220.78v-5.86h5.89v5.86h-5.89ZM441.68,226.67v-5.89h5.89v5.89h-5.89ZM441.68,232.53v-5.86h5.89v5.86h-5.89ZM441.68,244.16v-5.74h5.89v5.74h-5.89ZM447.57,244.16v5.8h-5.89v-5.8h5.89ZM447.57,232.53v-5.86h5.89v5.86h-5.89ZM447.57,244.16v-5.74h5.89v5.74h-5.89ZM453.46,244.16v5.8h-5.89v-5.8h5.89ZM453.46,232.53v-5.86h5.86v5.86h-5.86ZM453.46,244.16v-5.74h5.86v5.74h-5.86ZM459.32,244.16v5.8h-5.86v-5.8h5.86ZM459.32,232.53v-5.86h5.89v5.86h-5.89ZM459.32,238.41v-5.89h5.89v5.89h-5.89ZM459.32,244.16v-5.74h5.89v5.74h-5.89ZM465.2,244.16v5.8h-5.89v-5.8h5.89ZM465.2,238.41v-5.89h5.86v5.89h-5.86ZM465.2,244.16v-5.74h5.86v5.74h-5.86ZM471.06,244.16v5.8h-5.86v-5.8h5.86Z"/>
    <g>
      <polygon class="st0" points="10.41 332.54 77.39 331.06 78.85 301.78 95.68 331.06 168.9 332.54 168.9 274 192.17 274 195.12 331.06 224.38 331.06 232.37 277.3 251.95 282.2 247.81 332.54 339.82 331.06 337.38 274 355.69 274 359.5 331.06 390.82 332.54 398.49 281.49 418.07 281.49 418.07 332.54 453.46 331.06 454.77 306.69 476.63 316.46 498.68 335.84 540.09 313.88 544.9 331.06 598.68 335.84 623.14 328.15 623.14 290.45 623.14 256.04 507.46 253 498.31 267.48 481.54 253 343.94 253 335.01 267.48 322.71 260.8 316.78 253 263.7 254.58 254.9 266.49 247.07 262.7 238.8 253 95.68 253 94.23 266.49 71.39 254.58 10.41 253 10.41 332.54"/>
      <path class="st6" d="M3.03,257.91v-9.81h9.81v9.81H3.03ZM3.03,267.48v-9.57h9.81v9.57H3.03ZM3.03,277.3v-9.81h9.81v9.81H3.03ZM3.03,287.11v-9.81h9.81v9.81H3.03ZM3.03,296.88v-9.77h9.81v9.77H3.03ZM3.03,306.69v-9.81h9.81v9.81H3.03ZM3.03,316.46v-9.77h9.81v9.77H3.03ZM3.03,326.27v-9.81h9.81v9.81H3.03ZM3.03,335.84v-9.57h9.81v9.57H3.03ZM12.84,257.91v-9.81h9.77v9.81h-9.77ZM12.84,335.84v-9.57h9.77v9.57h-9.77ZM22.61,335.84v9.67h-9.77v-9.67h9.77ZM22.61,257.91v-9.81h9.81v9.81h-9.81ZM22.61,335.84v-9.57h9.81v9.57h-9.81ZM32.42,335.84v9.67h-9.81v-9.67h9.81ZM32.42,257.91v-9.81h9.57v9.81h-9.57ZM32.42,267.48v-9.57h9.57v9.57h-9.57ZM32.42,277.3v-9.81h9.57v9.81h-9.57ZM32.42,287.11v-9.81h9.57v9.81h-9.57ZM32.42,296.88v-9.77h9.57v9.77h-9.57ZM32.42,306.69v-9.81h9.57v9.81h-9.57ZM32.42,316.46v-9.77h9.57v9.77h-9.57ZM32.42,326.27v-9.81h9.57v9.81h-9.57ZM32.42,335.84v-9.57h9.57v9.57h-9.57ZM41.99,335.84v9.67h-9.57v-9.67h9.57ZM41.99,267.48v-9.57h9.81v9.57h-9.81ZM41.99,277.3v-9.81h9.81v9.81h-9.81ZM41.99,287.11v-9.81h9.81v9.81h-9.81ZM41.99,296.88v-9.77h9.81v9.77h-9.81ZM41.99,306.69v-9.81h9.81v9.81h-9.81ZM41.99,316.46v-9.77h9.81v9.77h-9.81ZM41.99,326.27v-9.81h9.81v9.81h-9.81ZM41.99,335.84v-9.57h9.81v9.57h-9.81ZM51.81,335.84v9.67h-9.81v-9.67h9.81Z"/>
      <path class="st6" d="M41.99,257.91v-9.81h9.81v9.81h-9.81ZM41.99,267.48v-9.57h9.81v9.57h-9.81ZM41.99,277.3v-9.81h9.81v9.81h-9.81ZM41.99,287.11v-9.81h9.81v9.81h-9.81ZM41.99,296.88v-9.77h9.81v9.77h-9.81ZM41.99,306.69v-9.81h9.81v9.81h-9.81ZM41.99,316.46v-9.77h9.81v9.77h-9.81ZM41.99,326.27v-9.81h9.81v9.81h-9.81ZM41.99,335.84v-9.57h9.81v9.57h-9.81ZM51.81,257.91v-9.81h9.77v9.81h-9.77ZM51.81,335.84v-9.57h9.77v9.57h-9.77ZM61.57,335.84v9.67h-9.77v-9.67h9.77ZM61.57,257.91v-9.81h9.81v9.81h-9.81ZM61.57,335.84v-9.57h9.81v9.57h-9.81ZM71.39,335.84v9.67h-9.81v-9.67h9.81ZM71.39,257.91v-9.81h9.57v9.81h-9.57ZM71.39,267.48v-9.57h9.57v9.57h-9.57ZM71.39,296.88v-9.77h9.57v9.77h-9.57ZM71.39,306.69v-9.81h9.57v9.81h-9.57ZM71.39,316.46v-9.77h9.57v9.77h-9.57ZM71.39,326.27v-9.81h9.57v9.81h-9.57ZM71.39,335.84v-9.57h9.57v9.57h-9.57ZM80.96,335.84v9.67h-9.57v-9.67h9.57ZM80.96,267.48v-9.57h9.81v9.57h-9.81ZM80.96,277.3v-9.81h9.81v9.81h-9.81ZM80.96,306.69v-9.81h9.81v9.81h-9.81ZM80.96,316.46v-9.77h9.81v9.77h-9.81ZM80.96,326.27v-9.81h9.81v9.81h-9.81ZM80.96,335.84v-9.57h9.81v9.57h-9.81ZM90.77,335.84v9.67h-9.81v-9.67h9.81ZM90.77,257.91v-9.81h9.81v9.81h-9.81ZM90.77,267.48v-9.57h9.81v9.57h-9.81ZM90.77,277.3v-9.81h9.81v9.81h-9.81ZM90.77,287.11v-9.81h9.81v9.81h-9.81ZM90.77,316.46v-9.77h9.81v9.77h-9.81ZM90.77,326.27v-9.81h9.81v9.81h-9.81ZM90.77,335.84v-9.57h9.81v9.57h-9.81ZM100.58,257.91v-9.81h9.77v9.81h-9.77ZM100.58,335.84v-9.57h9.77v9.57h-9.77ZM110.35,335.84v9.67h-9.77v-9.67h9.77ZM110.35,257.91v-9.81h9.81v9.81h-9.81ZM110.35,335.84v-9.57h9.81v9.57h-9.81ZM120.16,335.84v9.67h-9.81v-9.67h9.81ZM120.16,257.91v-9.81h9.77v9.81h-9.77ZM120.16,267.48v-9.57h9.77v9.57h-9.77ZM120.16,277.3v-9.81h9.77v9.81h-9.77ZM120.16,287.11v-9.81h9.77v9.81h-9.77ZM120.16,296.88v-9.77h9.77v9.77h-9.77ZM120.16,306.69v-9.81h9.77v9.81h-9.77ZM120.16,316.46v-9.77h9.77v9.77h-9.77ZM120.16,326.27v-9.81h9.77v9.81h-9.77ZM120.16,335.84v-9.57h9.77v9.57h-9.77ZM129.93,335.84v9.67h-9.77v-9.67h9.77ZM129.93,267.48v-9.57h9.62v9.57h-9.62ZM129.93,277.3v-9.81h9.62v9.81h-9.62ZM129.93,287.11v-9.81h9.62v9.81h-9.62ZM129.93,296.88v-9.77h9.62v9.77h-9.62ZM129.93,306.69v-9.81h9.62v9.81h-9.62ZM129.93,316.46v-9.77h9.62v9.77h-9.62ZM129.93,326.27v-9.81h9.62v9.81h-9.62ZM129.93,335.84v-9.57h9.62v9.57h-9.62ZM139.55,335.84v9.67h-9.62v-9.67h9.62Z"/>
      <path class="st6" d="M129.93,257.91v-9.81h9.81v9.81h-9.81ZM129.93,267.48v-9.57h9.81v9.57h-9.81ZM129.93,277.3v-9.81h9.81v9.81h-9.81ZM129.93,287.11v-9.81h9.81v9.81h-9.81ZM129.93,296.88v-9.77h9.81v9.77h-9.81ZM129.93,306.69v-9.81h9.81v9.81h-9.81ZM129.93,316.46v-9.77h9.81v9.77h-9.81ZM129.93,326.27v-9.81h9.81v9.81h-9.81ZM129.93,335.84v-9.57h9.81v9.57h-9.81ZM139.74,257.91v-9.81h9.77v9.81h-9.77ZM139.74,335.84v-9.57h9.77v9.57h-9.77ZM149.51,335.84v9.67h-9.77v-9.67h9.77ZM149.51,257.91v-9.81h9.81v9.81h-9.81ZM149.51,335.84v-9.57h9.81v9.57h-9.81ZM159.32,335.84v9.67h-9.81v-9.67h9.81ZM159.32,257.91v-9.81h9.57v9.81h-9.57ZM159.32,267.48v-9.57h9.57v9.57h-9.57ZM159.32,277.3v-9.81h9.57v9.81h-9.57ZM159.32,287.11v-9.81h9.57v9.81h-9.57ZM159.32,296.88v-9.77h9.57v9.77h-9.57ZM159.32,306.69v-9.81h9.57v9.81h-9.57ZM159.32,316.46v-9.77h9.57v9.77h-9.57ZM159.32,326.27v-9.81h9.57v9.81h-9.57ZM159.32,335.84v-9.57h9.57v9.57h-9.57ZM168.9,335.84v9.67h-9.57v-9.67h9.57ZM168.9,267.48v-9.57h9.81v9.57h-9.81ZM168.9,277.3v-9.81h9.81v9.81h-9.81ZM168.9,287.11v-9.81h9.81v9.81h-9.81ZM168.9,296.88v-9.77h9.81v9.77h-9.81ZM168.9,306.69v-9.81h9.81v9.81h-9.81ZM168.9,316.46v-9.77h9.81v9.77h-9.81ZM168.9,326.27v-9.81h9.81v9.81h-9.81ZM168.9,335.84v-9.57h9.81v9.57h-9.81ZM178.71,335.84v9.67h-9.81v-9.67h9.81Z"/>
      <path class="st6" d="M168.9,257.91v-9.81h9.81v9.81h-9.81ZM168.9,267.48v-9.57h9.81v9.57h-9.81ZM168.9,277.3v-9.81h9.81v9.81h-9.81ZM178.71,257.91v-9.81h9.77v9.81h-9.77ZM178.71,277.3v-9.81h9.77v9.81h-9.77ZM188.48,257.91v-9.81h9.81v9.81h-9.81ZM188.48,277.3v-9.81h9.81v9.81h-9.81ZM188.48,287.11v-9.81h9.81v9.81h-9.81ZM188.48,296.88v-9.77h9.81v9.77h-9.81ZM188.48,306.69v-9.81h9.81v9.81h-9.81ZM188.48,316.46v-9.77h9.81v9.77h-9.81ZM188.48,326.27v-9.81h9.81v9.81h-9.81ZM188.48,335.84v-9.57h9.81v9.57h-9.81ZM198.29,257.91v-9.81h9.57v9.81h-9.57ZM198.29,335.84v-9.57h9.57v9.57h-9.57ZM207.86,335.84v9.67h-9.57v-9.67h9.57ZM207.86,257.91v-9.81h9.81v9.81h-9.81ZM207.86,335.84v-9.57h9.81v9.57h-9.81ZM217.67,335.84v9.67h-9.81v-9.67h9.81ZM217.67,257.91v-9.81h9.81v9.81h-9.81ZM217.67,277.3v-9.81h9.81v9.81h-9.81ZM217.67,287.11v-9.81h9.81v9.81h-9.81ZM217.67,296.88v-9.77h9.81v9.77h-9.81ZM217.67,306.69v-9.81h9.81v9.81h-9.81ZM217.67,316.46v-9.77h9.81v9.77h-9.81ZM217.67,326.27v-9.81h9.81v9.81h-9.81ZM217.67,335.84v-9.57h9.81v9.57h-9.81ZM227.49,335.84v9.67h-9.81v-9.67h9.81ZM227.49,257.91v-9.81h9.77v9.81h-9.77ZM227.49,277.3v-9.81h9.77v9.81h-9.77ZM227.49,287.11v-9.81h9.77v9.81h-9.77ZM227.49,296.88v-9.77h9.77v9.77h-9.77ZM227.49,306.69v-9.81h9.77v9.81h-9.77ZM227.49,316.46v-9.77h9.77v9.77h-9.77ZM227.49,326.27v-9.81h9.77v9.81h-9.77ZM227.49,335.84v-9.57h9.77v9.57h-9.77ZM237.25,335.84v9.67h-9.77v-9.67h9.77ZM237.25,257.91v-9.81h19.63v9.81h-19.63ZM237.25,267.48v-9.57h9.81v9.57h-9.81ZM237.25,277.3v-9.81h9.81v9.81h-9.81ZM237.25,287.11v-9.81h9.81v9.81h-9.81ZM247.07,267.48v-9.57h9.77v9.57h-9.77ZM247.07,277.3v-9.81h9.77v9.81h-9.77ZM247.07,287.11v-9.81h9.77v9.81h-9.77Z"/>
      <path class="st6" d="M247.07,267.48v-9.57h9.81v9.57h-9.81ZM247.07,277.3v-9.81h9.81v9.81h-9.81ZM247.07,287.11v-9.81h9.81v9.81h-9.81ZM247.07,296.88v-9.77h9.81v9.77h-9.81ZM247.07,306.69v-9.81h9.81v9.81h-9.81ZM247.07,316.46v-9.77h9.81v9.77h-9.81ZM247.07,326.27v-9.81h9.81v9.81h-9.81ZM247.07,335.84v-9.57h9.81v9.57h-9.81ZM256.88,257.91v-9.81h9.77v9.81h-9.77ZM256.88,267.48v-9.57h9.77v9.57h-9.77ZM256.88,335.84v-9.57h9.77v9.57h-9.77ZM266.65,335.84v9.67h-9.77v-9.67h9.77ZM266.65,257.91v-9.81h9.81v9.81h-9.81ZM266.65,335.84v-9.57h9.81v9.57h-9.81ZM276.46,335.84v9.67h-9.81v-9.67h9.81ZM276.46,257.91v-9.81h9.57v9.81h-9.57ZM276.46,277.3v-9.81h9.57v9.81h-9.57ZM276.46,287.11v-9.81h9.57v9.81h-9.57ZM276.46,296.88v-9.77h9.57v9.77h-9.57ZM276.46,316.46v-9.77h9.57v9.77h-9.57ZM276.46,326.27v-9.81h9.57v9.81h-9.57ZM276.46,335.84v-9.57h9.57v9.57h-9.57ZM286.03,335.84v9.67h-9.57v-9.67h9.57ZM286.03,257.91v-9.81h9.81v9.81h-9.81ZM286.03,277.3v-9.81h9.81v9.81h-9.81ZM286.03,287.11v-9.81h9.81v9.81h-9.81ZM286.03,296.88v-9.77h9.81v9.77h-9.81ZM286.03,316.46v-9.77h9.81v9.77h-9.81ZM286.03,326.27v-9.81h9.81v9.81h-9.81ZM286.03,335.84v-9.57h9.81v9.57h-9.81ZM295.85,335.84v9.67h-9.81v-9.67h9.81ZM295.85,257.91v-9.81h9.81v9.81h-9.81ZM295.85,277.3v-9.81h9.81v9.81h-9.81ZM295.85,287.11v-9.81h9.81v9.81h-9.81ZM295.85,296.88v-9.77h9.81v9.77h-9.81ZM295.85,316.46v-9.77h9.81v9.77h-9.81ZM295.85,326.27v-9.81h9.81v9.81h-9.81ZM295.85,335.84v-9.57h9.81v9.57h-9.81ZM305.66,257.91v-9.81h9.77v9.81h-9.77ZM305.66,335.84v-9.57h9.77v9.57h-9.77ZM315.43,335.84v9.67h-9.77v-9.67h9.77ZM315.43,257.91v-9.81h9.81v9.81h-9.81ZM315.43,267.48v-9.57h9.81v9.57h-9.81ZM315.43,335.84v-9.57h9.81v9.57h-9.81ZM325.24,335.84v9.67h-9.81v-9.67h9.81ZM325.24,267.48v-9.57h9.77v9.57h-9.77ZM325.24,277.3v-9.81h9.77v9.81h-9.77ZM325.24,287.11v-9.81h9.77v9.81h-9.77ZM325.24,296.88v-9.77h9.77v9.77h-9.77ZM325.24,306.69v-9.81h9.77v9.81h-9.77ZM325.24,316.46v-9.77h9.77v9.77h-9.77ZM325.24,326.27v-9.81h9.77v9.81h-9.77ZM325.24,335.84v-9.57h9.77v9.57h-9.77ZM335.01,335.84v9.67h-9.77v-9.67h9.77ZM335.01,277.3v-9.81h9.62v9.81h-9.62ZM335.01,287.11v-9.81h9.62v9.81h-9.62ZM335.01,296.88v-9.77h9.62v9.77h-9.62ZM335.01,306.69v-9.81h9.62v9.81h-9.62ZM335.01,316.46v-9.77h9.62v9.77h-9.62ZM335.01,326.27v-9.81h9.62v9.81h-9.62ZM335.01,335.84v-9.57h9.62v9.57h-9.62ZM344.63,335.84v9.67h-9.62v-9.67h9.62Z"/>
      <path class="st6" d="M325.24,257.91v-9.81h19.58v9.81h-19.58ZM335.01,267.48v-9.57h9.81v9.57h-9.81ZM335.01,277.3v-9.81h9.81v9.81h-9.81ZM344.82,257.91v-9.81h9.77v9.81h-9.77ZM344.82,277.3v-9.81h9.77v9.81h-9.77ZM354.59,257.91v-9.81h9.81v9.81h-9.81ZM354.59,277.3v-9.81h9.81v9.81h-9.81ZM354.59,287.11v-9.81h9.81v9.81h-9.81ZM354.59,296.88v-9.77h9.81v9.77h-9.81ZM354.59,306.69v-9.81h9.81v9.81h-9.81ZM354.59,316.46v-9.77h9.81v9.77h-9.81ZM354.59,326.27v-9.81h9.81v9.81h-9.81ZM354.59,335.84v-9.57h9.81v9.57h-9.81ZM364.4,257.91v-9.81h9.57v9.81h-9.57ZM364.4,335.84v-9.57h9.57v9.57h-9.57ZM373.97,335.84v9.67h-9.57v-9.67h9.57ZM373.97,257.91v-9.81h9.81v9.81h-9.81ZM373.97,335.84v-9.57h9.81v9.57h-9.81ZM383.79,335.84v9.67h-9.81v-9.67h9.81ZM383.79,257.91v-9.81h9.81v9.81h-9.81ZM383.79,277.3v-9.81h9.81v9.81h-9.81ZM383.79,287.11v-9.81h9.81v9.81h-9.81ZM383.79,296.88v-9.77h9.81v9.77h-9.81ZM383.79,306.69v-9.81h9.81v9.81h-9.81ZM383.79,316.46v-9.77h9.81v9.77h-9.81ZM383.79,326.27v-9.81h9.81v9.81h-9.81ZM383.79,335.84v-9.57h9.81v9.57h-9.81ZM393.6,335.84v9.67h-9.81v-9.67h9.81ZM393.6,257.91v-9.81h9.77v9.81h-9.77ZM393.6,277.3v-9.81h9.77v9.81h-9.77ZM393.6,287.11v-9.81h9.77v9.81h-9.77ZM393.6,296.88v-9.77h9.77v9.77h-9.77ZM393.6,306.69v-9.81h9.77v9.81h-9.77ZM393.6,316.46v-9.77h9.77v9.77h-9.77ZM393.6,326.27v-9.81h9.77v9.81h-9.77ZM393.6,335.84v-9.57h9.77v9.57h-9.77ZM403.37,335.84v9.67h-9.77v-9.67h9.77ZM403.37,257.91v-9.81h9.81v9.81h-9.81ZM403.37,267.48v-9.57h9.81v9.57h-9.81ZM403.37,277.3v-9.81h9.81v9.81h-9.81ZM403.37,287.11v-9.81h9.81v9.81h-9.81ZM413.18,267.48v-9.57h9.77v9.57h-9.77ZM413.18,277.3v-9.81h9.77v9.81h-9.77ZM413.18,287.11v-9.81h9.77v9.81h-9.77Z"/>
      <path class="st6" d="M413.18,257.91v-9.81h9.81v9.81h-9.81ZM413.18,267.48v-9.57h9.81v9.57h-9.81ZM413.18,277.3v-9.81h9.81v9.81h-9.81ZM413.18,287.11v-9.81h9.81v9.81h-9.81ZM413.18,296.88v-9.77h9.81v9.77h-9.81ZM413.18,306.69v-9.81h9.81v9.81h-9.81ZM413.18,316.46v-9.77h9.81v9.77h-9.81ZM413.18,326.27v-9.81h9.81v9.81h-9.81ZM413.18,335.84v-9.57h9.81v9.57h-9.81ZM423,257.91v-9.81h9.77v9.81h-9.77ZM423,335.84v-9.57h9.77v9.57h-9.77ZM432.76,335.84v9.67h-9.77v-9.67h9.77ZM432.76,257.91v-9.81h9.81v9.81h-9.81ZM432.76,335.84v-9.57h9.81v9.57h-9.81ZM442.58,335.84v9.67h-9.81v-9.67h9.81ZM442.58,257.91v-9.81h9.57v9.81h-9.57ZM442.58,267.48v-9.57h9.57v9.57h-9.57ZM442.58,277.3v-9.81h9.57v9.81h-9.57ZM442.58,287.11v-9.81h9.57v9.81h-9.57ZM442.58,296.88v-9.77h9.57v9.77h-9.57ZM442.58,306.69v-9.81h9.57v9.81h-9.57ZM442.58,316.46v-9.77h9.57v9.77h-9.57ZM442.58,326.27v-9.81h9.57v9.81h-9.57ZM442.58,335.84v-9.57h9.57v9.57h-9.57ZM452.15,335.84v9.67h-9.57v-9.67h9.57ZM452.15,267.48v-9.57h9.81v9.57h-9.81ZM452.15,277.3v-9.81h9.81v9.81h-9.81ZM452.15,287.11v-9.81h9.81v9.81h-9.81ZM452.15,296.88v-9.77h9.81v9.77h-9.81ZM452.15,306.69v-9.81h9.81v9.81h-9.81ZM452.15,316.46v-9.77h9.81v9.77h-9.81ZM452.15,326.27v-9.81h9.81v9.81h-9.81ZM452.15,335.84v-9.57h9.81v9.57h-9.81ZM461.96,335.84v9.67h-9.81v-9.67h9.81Z"/>
      <path class="st6" d="M452.15,257.91v-9.81h9.81v9.81h-9.81ZM452.15,267.48v-9.57h9.81v9.57h-9.81ZM452.15,277.3v-9.81h9.81v9.81h-9.81ZM452.15,287.11v-9.81h9.81v9.81h-9.81ZM452.15,296.88v-9.77h9.81v9.77h-9.81ZM452.15,306.69v-9.81h9.81v9.81h-9.81ZM461.96,257.91v-9.81h9.77v9.81h-9.77ZM461.96,306.69v-9.81h9.77v9.81h-9.77ZM461.96,316.46v-9.77h9.77v9.77h-9.77ZM471.73,257.91v-9.81h9.81v9.81h-9.81ZM471.73,316.46v-9.77h9.81v9.77h-9.81ZM471.73,326.27v-9.81h9.81v9.81h-9.81ZM481.54,257.91v-9.81h9.57v9.81h-9.57ZM481.54,267.48v-9.57h9.57v9.57h-9.57ZM481.54,277.3v-9.81h9.57v9.81h-9.57ZM481.54,287.11v-9.81h9.57v9.81h-9.57ZM481.54,296.88v-9.77h9.57v9.77h-9.57ZM481.54,326.27v-9.81h9.57v9.81h-9.57ZM481.54,335.84v-9.57h9.57v9.57h-9.57ZM491.11,267.48v-9.57h9.81v9.57h-9.81ZM491.11,277.3v-9.81h9.81v9.81h-9.81ZM491.11,287.11v-9.81h9.81v9.81h-9.81ZM491.11,296.88v-9.77h9.81v9.77h-9.81ZM491.11,306.69v-9.81h9.81v9.81h-9.81ZM491.11,335.84v-9.57h9.81v9.57h-9.81ZM500.93,335.84v9.67h-9.81v-9.67h9.81ZM500.93,257.91v-9.81h9.81v9.81h-9.81ZM500.93,267.48v-9.57h9.81v9.57h-9.81ZM500.93,277.3v-9.81h9.81v9.81h-9.81ZM500.93,287.11v-9.81h9.81v9.81h-9.81ZM500.93,296.88v-9.77h9.81v9.77h-9.81ZM500.93,326.27v-9.81h9.81v9.81h-9.81ZM500.93,335.84v-9.57h9.81v9.57h-9.81ZM510.74,335.84v9.67h-9.81v-9.67h9.81ZM510.74,257.91v-9.81h9.77v9.81h-9.77ZM510.74,316.46v-9.77h9.77v9.77h-9.77ZM510.74,326.27v-9.81h9.77v9.81h-9.77ZM510.74,335.84v-9.57h9.77v9.57h-9.77ZM520.51,335.84v9.67h-9.77v-9.67h9.77ZM520.51,257.91v-9.81h9.81v9.81h-9.81ZM520.51,306.69v-9.81h9.81v9.81h-9.81ZM520.51,316.46v-9.77h9.81v9.77h-9.81ZM520.51,326.27v-9.81h9.81v9.81h-9.81ZM520.51,335.84v-9.57h9.81v9.57h-9.81ZM530.32,257.91v-9.81h9.77v9.81h-9.77ZM530.32,267.48v-9.57h9.77v9.57h-9.77ZM530.32,277.3v-9.81h9.77v9.81h-9.77ZM530.32,287.11v-9.81h9.77v9.81h-9.77ZM530.32,296.88v-9.77h9.77v9.77h-9.77ZM530.32,306.69v-9.81h9.77v9.81h-9.77ZM530.32,316.46v-9.77h9.77v9.77h-9.77ZM530.32,326.27v-9.81h9.77v9.81h-9.77ZM540.09,267.48v-9.57h9.62v9.57h-9.62ZM540.09,277.3v-9.81h9.62v9.81h-9.62ZM540.09,287.11v-9.81h9.62v9.81h-9.62ZM540.09,296.88v-9.77h9.62v9.77h-9.62ZM540.09,306.69v-9.81h9.62v9.81h-9.62ZM540.09,316.46v-9.77h9.62v9.77h-9.62Z"/>
      <path class="st6" d="M540.09,257.91v-9.81h9.81v9.81h-9.81ZM540.09,267.48v-9.57h9.81v9.57h-9.81ZM540.09,277.3v-9.81h9.81v9.81h-9.81ZM540.09,287.11v-9.81h9.81v9.81h-9.81ZM540.09,296.88v-9.77h9.81v9.77h-9.81ZM540.09,306.69v-9.81h9.81v9.81h-9.81ZM540.09,316.46v-9.77h9.81v9.77h-9.81ZM540.09,326.27v-9.81h9.81v9.81h-9.81ZM540.09,335.84v-9.57h9.81v9.57h-9.81ZM549.9,257.91v-9.81h9.77v9.81h-9.77ZM549.9,335.84v-9.57h9.77v9.57h-9.77ZM559.67,335.84v9.67h-9.77v-9.67h9.77ZM559.67,257.91v-9.81h9.81v9.81h-9.81ZM559.67,335.84v-9.57h9.81v9.57h-9.81ZM569.48,335.84v9.67h-9.81v-9.67h9.81ZM569.48,257.91v-9.81h9.57v9.81h-9.57ZM569.48,277.3v-9.81h9.57v9.81h-9.57ZM569.48,287.11v-9.81h9.57v9.81h-9.57ZM569.48,306.69v-9.81h9.57v9.81h-9.57ZM569.48,316.46v-9.77h9.57v9.77h-9.57ZM569.48,335.84v-9.57h9.57v9.57h-9.57ZM579.05,335.84v9.67h-9.57v-9.67h9.57ZM579.05,257.91v-9.81h9.81v9.81h-9.81ZM579.05,277.3v-9.81h9.81v9.81h-9.81ZM579.05,287.11v-9.81h9.81v9.81h-9.81ZM579.05,306.69v-9.81h9.81v9.81h-9.81ZM579.05,316.46v-9.77h9.81v9.77h-9.81ZM579.05,335.84v-9.57h9.81v9.57h-9.81ZM588.87,335.84v9.67h-9.81v-9.67h9.81ZM588.87,257.91v-9.81h9.81v9.81h-9.81ZM588.87,277.3v-9.81h9.81v9.81h-9.81ZM588.87,287.11v-9.81h9.81v9.81h-9.81ZM588.87,306.69v-9.81h9.81v9.81h-9.81ZM588.87,316.46v-9.77h9.81v9.77h-9.81ZM588.87,335.84v-9.57h9.81v9.57h-9.81ZM598.68,335.84v9.67h-9.81v-9.67h9.81ZM598.68,257.91v-9.81h9.77v9.81h-9.77ZM598.68,277.3v-9.81h9.77v9.81h-9.77ZM598.68,287.11v-9.81h9.77v9.81h-9.77ZM598.68,306.69v-9.81h9.77v9.81h-9.77ZM598.68,316.46v-9.77h9.77v9.77h-9.77ZM598.68,335.84v-9.57h9.77v9.57h-9.77ZM608.45,335.84v9.67h-9.77v-9.67h9.77ZM608.45,257.91v-9.81h9.81v9.81h-9.81ZM608.45,277.3v-9.81h9.81v9.81h-9.81ZM608.45,287.11v-9.81h9.81v9.81h-9.81ZM608.45,296.88v-9.77h9.81v9.77h-9.81ZM608.45,306.69v-9.81h9.81v9.81h-9.81ZM608.45,316.46v-9.77h9.81v9.77h-9.81ZM608.45,335.84v-9.57h9.81v9.57h-9.81ZM618.26,335.84v9.67h-9.81v-9.67h9.81ZM618.26,257.91v-9.81h9.77v9.81h-9.77ZM618.26,267.48v-9.57h9.77v9.57h-9.77ZM618.26,277.3v-9.81h9.77v9.81h-9.77ZM618.26,287.11v-9.81h9.77v9.81h-9.77ZM618.26,296.88v-9.77h9.77v9.77h-9.77ZM618.26,306.69v-9.81h9.77v9.81h-9.77ZM618.26,316.46v-9.77h9.77v9.77h-9.77ZM618.26,326.27v-9.81h9.77v9.81h-9.77ZM618.26,335.84v-9.57h9.77v9.57h-9.77ZM628.03,335.84v9.67h-9.77v-9.67h9.77ZM628.03,267.48v-9.57h9.62v9.57h-9.62ZM628.03,277.3v-9.81h9.62v9.81h-9.62ZM628.03,287.11v-9.81h9.62v9.81h-9.62ZM628.03,326.27v-9.81h9.62v9.81h-9.62ZM628.03,335.84v-9.57h9.62v9.57h-9.62ZM637.65,335.84v9.67h-9.62v-9.67h9.62Z"/>
      <g>
        <polygon class="st0" points="645.55 203.14 700.01 209.52 679.51 359.87 632.95 359.87 645.55 203.14"/>
        <path class="st6" d="M633.44,207.87l1.65-20.28,20.28,1.65-1.65,20.28-20.28-1.65ZM631.84,227.65l1.6-19.78,20.28,1.65-1.6,19.78-20.28-1.65ZM630.2,247.94l1.65-20.28,20.28,1.65-1.65,20.28-20.28-1.65ZM628.55,268.22l1.65-20.28,20.28,1.65-1.65,20.28-20.28-1.65ZM626.91,288.4l1.64-20.18,20.28,1.65-1.64,20.18-20.28-1.65ZM625.27,308.69l1.65-20.28,20.28,1.65-1.65,20.28-20.28-1.65ZM623.63,328.87l1.64-20.18,20.28,1.65-1.64,20.18-20.28-1.65ZM621.99,349.15l1.65-20.28,20.28,1.65-1.65,20.28-20.28-1.65ZM620.38,368.93l1.6-19.78,20.28,1.65-1.6,19.78-20.28-1.65ZM653.73,209.52l1.65-20.28,20.18,1.64-1.65,20.28-20.18-1.64ZM643.91,330.51l1.64-20.18,20.18,1.64-1.64,20.18-20.18-1.64ZM640.66,370.58l1.6-19.78,20.18,1.64-1.6,19.78-20.18-1.64ZM660.85,372.22l-1.62,19.98-20.18-1.64,1.62-19.98,20.18,1.64ZM673.91,211.16l1.65-20.28,20.28,1.65-1.65,20.28-20.28-1.65ZM667.38,291.69l1.64-20.18,20.28,1.65-1.64,20.18-20.28-1.65ZM665.73,311.97l1.65-20.28,20.28,1.65-1.65,20.28-20.28-1.65ZM664.1,332.15l1.64-20.18,20.28,1.65-1.64,20.18-20.28-1.65ZM662.45,352.43l1.65-20.28,20.28,1.65-1.65,20.28-20.28-1.65ZM660.85,372.22l1.6-19.78,20.28,1.65-1.6,19.78-20.28-1.65ZM681.13,373.86l-1.62,19.98-20.28-1.65,1.62-19.98,20.28,1.65ZM694.2,212.8l1.65-20.28,19.78,1.6-1.65,20.28-19.78-1.6ZM692.59,232.58l1.6-19.78,19.78,1.6-1.6,19.78-19.78-1.6ZM690.95,252.86l1.65-20.28,19.78,1.6-1.65,20.28-19.78-1.6ZM689.3,273.15l1.65-20.28,19.78,1.6-1.65,20.28-19.78-1.6ZM687.66,293.33l1.64-20.18,19.78,1.6-1.64,20.18-19.78-1.6ZM686.02,313.61l1.65-20.28,19.78,1.6-1.65,20.28-19.78-1.6ZM684.38,333.8l1.64-20.18,19.78,1.6-1.64,20.18-19.78-1.6ZM682.74,354.08l1.65-20.28,19.78,1.6-1.65,20.28-19.78-1.6ZM681.13,373.86l1.6-19.78,19.78,1.6-1.6,19.78-19.78-1.6ZM700.91,375.46l-1.62,19.98-19.78-1.6,1.62-19.98,19.78,1.6ZM712.37,234.18l1.6-19.78,20.28,1.65-1.6,19.78-20.28-1.65ZM710.72,254.47l1.65-20.28,20.28,1.65-1.65,20.28-20.28-1.65ZM709.08,274.75l1.65-20.28,20.28,1.65-1.65,20.28-20.28-1.65ZM707.44,294.93l1.64-20.18,20.28,1.65-1.64,20.18-20.28-1.65ZM705.8,315.22l1.65-20.28,20.28,1.65-1.65,20.28-20.28-1.65Z"/>
      </g>
    </g>
  </g>
</svg>